<?xml version="1.0" encoding="utf-8"?>
<!-- Generator: Adobe Illustrator 25.0.0, SVG Export Plug-In . SVG Version: 6.00 Build 0)  -->
<svg version="1.1" id="Capa_1" xmlns="http://www.w3.org/2000/svg" xmlns:xlink="http://www.w3.org/1999/xlink" x="0px" y="0px"
	 viewBox="0 0 975.3 975.3" style="enable-background:new 0 0 975.3 975.3;" xml:space="preserve">
<style type="text/css">
	.st0{fill:#B2E49E;}
	.st1{fill:#050605;}
	.st2{fill:#040605;}
	.st3{fill:#060807;}
	.st4{fill:#7FB3F9;}
	.st5{fill:#040505;}
	.st6{fill:#151813;}
	.st7{fill:#111616;}
	.st8{fill:#1C222A;}
	.st9{fill:#4C5E46;}
	.st10{fill:#6183AE;}
	.st11{fill:#070908;}
	.st12{fill:#1A2117;}
	.st13{fill:#374631;}
	.st14{fill:#88AE79;}
	.st15{fill:#B9ECA4;}
	.st16{fill:#B6E9A2;}
	.st17{fill:#526949;}
	.st18{fill:#B3E59F;}
	.st19{fill:#BBEFA6;}
	.st20{fill:#B7EAA3;}
	.st21{fill:#0D0F12;}
	.st22{fill:#1F2C22;}
	.st23{fill:#84A975;}
	.st24{fill:#1D2A20;}
	.st25{fill:#1F2B22;}
	.st26{fill:#2A3C2E;}
	.st27{fill:#334637;}
	.st28{fill:#7CB288;}
	.st29{fill:#293525;}
	.st30{fill:#2D3928;}
	.st31{fill:#0A0C0B;}
	.st32{fill:#192028;}
	.st33{fill:#131818;}
	.st34{fill:#121715;}
	.st35{fill:#26372A;}
	.st36{fill:#2E4233;}
	.st37{fill:#223125;}
	.st38{fill:#080A0A;}
	.st39{fill:#9CC5FA;}
	.st40{fill:#638ABE;}
	.st41{fill:#84B9FB;}
	.st42{fill:#191F16;}
	.st43{fill:#729CD1;}
	.st44{fill:#7290B2;}
	.st45{fill:#94D4A3;}
	.st46{fill:#95D6A4;}
	.st47{fill:#92CA97;}
	.st48{fill:#94D5A3;}
	.st49{fill:#F7F4F7;}
	.st50{fill:#8BAFDD;}
	.st51{fill:#90B6E4;}
	.st52{fill:#B0AFB0;}
	.st53{fill:#2B3744;}
	.st54{fill:#232C37;}
	.st55{fill:#A2CDFB;}
	.st56{fill:#95BDEE;}
	.st57{fill:#A0C9F8;}
	.st58{fill:#A4CFFC;}
	.st59{fill:#A3CEFC;}
	.st60{fill:#A6D1FC;}
	.st61{fill:#A0CAFB;}
	.st62{fill:#A2CCFC;}
	.st63{fill:#97BEEF;}
	.st64{fill:#95D7A5;}
	.st65{fill:#A8DFA0;}
	.st66{fill:#B9EDA4;}
	.st67{fill:#A7DFA0;}
	.st68{fill:#96D7A5;}
	.st69{fill:#99DCA9;}
	.st70{fill:#D2D0D2;}
	.st71{fill:#FCFAFC;}
	.st72{fill:#FCFBFC;}
	.st73{fill:#FBFAFB;}
	.st74{fill:#181B20;}
	.st75{fill:#171C21;}
	.st76{fill:#161A1F;}
	.st77{fill:#313B48;}
	.st78{fill:#090A0C;}
	.st79{fill:#0A0B0C;}
</style>
<path class="st0" d="M221.3,97c14.3-7.1,35.4-0.5,43.1-21.1c13.3,7.7,26.2,5.8,39.8,0.1c22.9-9.6,46-19.3,70.7-23.7
	c32.2,1.8,60.5,49.7,43.8,78.4c-33.6,57.8-69.2,114.3-105.4,170.5c-3.5,5.5-7.7,11.1-15.7,10.2c-7.8-6.4-17.3-4.1-24.6-4.4
	c5.2,1.7,13.1-2.7,19.5,2.8c0.5,2.3-0.4,4.6-2.2,6c-13.8,7.9-29.8,6.6-44.5,11c-25.5,2.1-50.2,9-75.7,11.7
	c-28.4,3-43.6,22.9-44.7,53.4c-0.9,25.6-1.2,51.2,0,76.8c1.2,25-4.2,47.6-16.8,69.1c-8.5,14.5-14.5,30.4-23.1,44.8
	c-10.8,18.2-20.2,21.1-42.3,14.4C33,583.5,31,566.7,30.6,551.2c-2-65.1-5.4-130.4,16.4-193.8c11.7-33.9,26.4-66.7,44-98
	c31.2-49.8,67.4-95.1,116.5-128.7c5.4-3.7,9.7-8.8,15-12.8C232.9,110.1,228.6,103.6,221.3,97z"/>
<path class="st1" d="M435.7,957.6c-88.7-5.7-168.4-37.1-237.5-91.3C54.5,753.5-8.6,604.6,14.5,423.3
	C29.4,305.9,86,208.5,176.4,131.7c10.9-9.3,19.6-21.9,34.6-25.9c5.2-0.6,10.2-8.9,15.4-2.1s-0.2,12.3-5.4,16.6
	c-25.5,20.6-50.9,41.1-73.3,65.3c-20.7,22.5-39,47.2-54.3,73.7C45.7,341,25,429.1,31.2,523.4c0.3,8-0.9,16,1.6,23.9
	c1.3,15.2,4.2,30.3,8.8,44.9c6,13.9,16.7,6.2,25.8,5.7c6.6-0.4,9.5-9.1,17-7.5c3.4,2.6,5.6,6.5,6,10.8c-2,11.5-9.8,19.2-20.3,20.3
	c-23.5,2.3-17.8,16.2-12.8,29.3c17.7,46,41.9,88,72.6,126.9c24.8,31.5,55.6,55.7,85.1,81.8c12.5,11,22.1,8.3,30.7-4.5
	c3.7-5.5,7.4-10.9,10.9-16.5c14-22.1,33.2-36.4,59.2-42.1c28.3-6.2,48.8-22.7,60.5-49.7c5.6-12.9,12.8-24.8,22.9-34.8
	c33.9-33.6,87.2-26.4,110.6,15c4,7,8.2,14.1,10.4,21.8c4.6,16.2,14.9,26.2,29.9,32.9c12.7,5.7,24.8,12.8,34.6,23.1
	c10.1,12,18.5,25.9,21.2,40.6c5.9,32.1,33.9,40.3,55.3,55.2c13.3,9.2,26.2-6.9,40.1-5.1c4.5,1.1,9.1,2,8.9,8.2
	c-54.6,30.3-112.4,50.2-175.1,54c-13.3,4.6-27.5-1-40.8,3.3h-17.8C463.1,956.6,449,962.2,435.7,957.6z"/>
<path class="st2" d="M883.9,237.9c29.2,31.3,43.7,70.7,55.1,110.3c53.5,185.5,10.7,347-125.7,483.4c-12.5,12.5-28.1,21.9-42.2,32.8
	c-13.5-7.6-2.8-14.5,1.6-19.7c26.2-30.5,26.3-30-8.7-51.4c-17.3-10.6-36-19.2-50-34.6c-1.4-1.6-2.7-3.3-3.9-5.1
	c-7-11.1-14.3-22-14.3-35.9c-0.5-11.9,0.7-23.8-1.6-35.6c-0.3-2.1-0.4-4.3-0.2-6.4c2.1-9.2,1.8-18.5,0.3-27.8
	c5.8-40.5,33.1-65.7,63.4-88.8c4.7,1.5,7.1,5,8,9.7c-0.3,14.4-11.7,22.6-18.6,33.3C711,631,712.1,670.8,718,710.7
	c2.2,14.8,12.2,28.1,25.5,37.3c21.7,15,44,29.1,67.1,41.9c7.6,4.3,13.4,5.4,18.3-3.1c19.1-24.2,40.8-46.4,53.6-75.1
	c9.3-18.5,21.7-35.7,25.7-56.6c1.7-7.9,4-15.7,6.9-23.2c22.2-58.7,27.9-119.2,19.6-181.1c-1.1-8-1.1-16.1-1.2-24.1
	c-4.8-54.3-24.8-103.6-50.3-151c-4.4-8.3-10.7-16-10.2-26.3C874.3,243.3,874.7,236.4,883.9,237.9z"/>
<path class="st3" d="M763.2,569.3l-4.4-8.9c-0.1-16.5,13-25.1,21.8-36.2c15.4-19.5,34.6-37.8,29.5-65.6
	c-5.6-30.1-10.7-60.4-21.3-89.3c-5.2-14.3-16.1-24-29.2-31.7c-25.8-15.3-51.9-30.2-77.2-46.4c-25.7-16.4-41.4-38.9-40-70.9
	c-1.1-48.3,2-96.6-1.8-144.8c-10.4-16.6-32.2-13.1-45.2-25.1c-1.6-14.2,13.4-7.3,17.8-13.8C729.9,68.1,818.8,137,883.9,237.9
	c-6.3,2.9-6,8.6-6.1,14.1c-10.9,0.5-14.3-9.1-18.9-15.6c-9.7-13.6-19.9-26.8-30.4-39.8c-38.6-46.4-86.3-81.1-139.3-108.9
	c-19-10-26.4-6.1-25.8,15c1.3,43-5.8,86.3,5.3,129c4.4,16.9,14.1,28.4,27.8,37.9c21.7,15,44.7,28,67.5,41.1
	c32.6,18.6,53.6,43.3,59.2,81.7c2.7,18.6,6.8,37.3,10.5,55.9c5.2,26.2-0.2,48.9-17,69.7c-10.6,13.1-19.8,27.3-31.8,39.3
	C778.9,563.1,774,571.8,763.2,569.3z"/>
<path class="st4" d="M762.6,869.5l-29.1,20.8c-9.2-4.5-18.3-10.1-28.9-3.4c-15.1,6.1-29.7,19.6-46.8,7.4
	c-18.7-13.4-45.3-20.1-47-49.8c2-6.7,6.9-10.9,12.9-14c21.3-11,39.8-26.5,60.6-38.3c15.3-8.7,23.7-20,22-37.9
	c2.8-1.9,5.6-2.7,7.9,0.8l-0.2-0.2c14.2,17.3,34.5,26.2,52.9,37.7c4.9,3.1,10.2,5.5,15,8.8c20.4,14.1,21.2,19.5,1.2,35.2
	C771.7,845.4,762.3,854.1,762.6,869.5z"/>
<path class="st5" d="M613.3,36.5c-0.7,11.8-13.5,5.2-17.7,11.7c-15.6,7-30.4-1.1-45.1-3.5c-35.2-5.7-70.4-1.9-105.5-3.1
	c-14-0.5-16.5,6.4-12,18.1c1,2.7,1.2,5.8,2.9,8.3c23.4,35.6,13.1,67-9,99.4c-34.3,50.3-63.7,103.8-96.8,154.9
	c-21.4,24.9-52.8,23.6-80.5,26.6c-26.8,2.8-52.7,10.8-79.8,11.1c-15.8,0.2-19.8,15-24.1,27.5c-5.3,35.7-0.9,71.6-2.4,107.3
	c-2.9,38.5-26.6,68.1-43.3,100.8c-2.1,4.1-7,6-11.4,4.5c-3.6-1.9-4.4-5.2-4.5-8.9c-1.2-13.5,7-23.8,13.2-34
	c21.9-35.5,30.9-73.3,26.8-114.8c-1.7-17.4-0.6-35.1-0.2-52.6c0.7-30.9,12-48,41.8-52.6c34.5-5.3,68.7-12.9,103.6-15
	c9.9-1.3,20.1-1.6,28.9-7.2c2-0.8,4.1-1.5,6.2-2c6.5-2.5,10.7-7.6,14.2-13.3c32.5-53.2,66.1-105.7,98.4-159
	c13.8-22.9,5.9-69.8-13.7-86.7c-8-6.9-18.5-2.3-27.6-4.1c-7.8-1.6-21.3,3.5-18.2-13.3l7.4-1.3c10.7-2.8,22.5-1,32.2-7.8l8-0.8
	c53.3-6.5,107.2-6.5,160.5,0l8.1,0.8c9.7,6.9,21.5,5,32.2,7.8L613.3,36.5z"/>
<path class="st3" d="M357.5,36.5c5.3,14.3,17.9,8.5,26.4,7.4c17.7-2.3,26.8,5.6,32.7,20.2c6.2,15.4,14.8,30.6,17.1,46.6
	c2.4,16.5-9.6,30.9-18,44.6c-29.4,48.2-59.7,95.9-89.9,143.6c-5.3,8.4-9,19.2-22.1,18.5c-0.8-2-0.6-4.3,0.8-6
	c37.8-58,73.1-117.7,109.8-176.4c15.8-25.3-1.9-73.2-29.1-81.7c-33.7,1.9-62.6,18.8-93.5,29.3c-16.2,5.4-19.8,2.4-17.5-14.8
	C300.4,53.8,328.5,43.2,357.5,36.5z"/>
<path class="st6" d="M92.7,255.5c25.2-50.7,65.4-88.3,108-123.8c5.6-4.6,11.5-8.9,16.8-13.8c3.3-3.1,10.3-5.9,5.6-11.8
	c-1.7-2-7.9-0.4-12.1-0.4l10.4-8.8c18.6,5.9,20.4,11.5,6.2,23.7c-18.3,15.8-37.9,30-55.9,46.1c-29.2,26-51.6,57.8-74.1,89.5
	C95.6,257.8,94,257.4,92.7,255.5z"/>
<path class="st7" d="M701.4,899.9c-36.8,22.7-60.1-6.7-86.5-23c-4.1-2.5-8.7-7.5-9.2-11.7c-2.7-21.5-14.8-38.7-23.9-57.3l2.5-2.2
	c22.6,2,19.2,23.2,26.6,36.3c4,18.5,41.9,56,59.8,56.9c13.3,0.6,23.3-10.4,35.5-14.5c18.2-4.3,20.5-3.2,21.9,10.6l-8.7,1.3
	C713.2,896.3,706.7,895.1,701.4,899.9z"/>
<path class="st8" d="M762.6,869.5c-8-13.7,0.4-21.5,10.1-29.4c29.9-24.6,29.2-22-4.2-43.3c-19.3-12.3-43.1-19.3-54.6-41.9
	c25.3,16,50.3,32.3,75.9,47.8c15.5,9.4,15.2,17.5,3.3,31c-8.1,9.1-28,11.2-21.9,30.6C770.4,869.4,765.9,868.5,762.6,869.5z"/>
<path class="st3" d="M565.6,26.6H405.1C458,14.9,512.7,14.9,565.6,26.6z"/>
<path class="st9" d="M274.2,67.9c-1.4,16.5,6.5,16.8,18.8,11.5c24.2-10.6,48.5-20.4,74.2-27c7.1-1.8,13.9-4.8,21.4-3
	c0.7,10.9-10.7,2.9-13.3,8.6c-28,5.5-54,17-80.3,27.6c-13,5.2-24.3,6.2-30.5-9.6C265.9,71.7,269.7,68.6,274.2,67.9z"/>
<path class="st10" d="M728.2,894.8c-3.1-14.3-13.7-8.7-22.3-8.5c-1.5-0.9-2.1-1.9-1.6-2.9c0.5-1,1-1.5,1.5-1.5
	c12.5-8,22.1-6.2,27.8,8.4C731.7,891.8,729.9,893.3,728.2,894.8z"/>
<path class="st3" d="M605.9,35.3c-11.2-0.8-24.1,5.4-32.2-7.8C584.8,27.8,595.8,30.5,605.9,35.3z"/>
<path class="st3" d="M397.2,27.4c-8.2,13.3-21.1,7-32.2,7.8C375,30.5,386,27.8,397.2,27.4z"/>
<path class="st11" d="M494.3,960.9c13.1-7.3,27.2-2.5,40.8-3.3C521.8,962.5,508,961.5,494.3,960.9z"/>
<path class="st11" d="M435.7,957.6c13.6,0.8,27.7-4,40.8,3.3C462.7,961.5,449,962.5,435.7,957.6z"/>
<path class="st11" d="M701.4,899.9c4.8-7.2,9.7-13.3,18-3.8c-1,5-3.1,8.7-9.2,7.5L701.4,899.9z"/>
<path class="st12" d="M273.7,326.6c-36.7,4.7-73.6,8.2-110,14.6c-25.5,4.4-35.1,18.8-35.5,45c-0.1,7.3-0.8,14.8,0.1,22
	c8.3,66.7-7.9,127.3-44.2,183.2c-14.1,7.3-27.4,23.1-44.2,4.7c1.5-2.6,3.4-2.9,5.7-0.9c18.9,4.2,29.3-4.7,38.6-20.8
	c25.5-44.1,43-89.5,36-141.7c-1.7-12.3-0.4-24.9-0.2-37.4c0.6-40.9,18.3-59.7,59.5-64.2c22.6-2.5,45.1-5.8,67.6-8.8
	c8.2-3.7,16.7-1.4,25.1-1.5C274.6,322,275.1,324,273.7,326.6z"/>
<path class="st13" d="M45.5,595l-5.7,0.9c-6.8-15.4-9-31.6-9-48.3c-4.6-6.9,1.2-15.7-4.2-22.5c-5.5-96.6,15.7-186.6,65.9-269.6
	l4.9,0.8c-15.4,36.1-35.3,70.1-46.1,108.5C30.1,441.2,27.9,517.8,45.5,595z"/>
<path class="st14" d="M375.2,57.9l13.3-8.6c25.2,12.5,44.6,59.6,31.4,81.6c-35.3,58.7-72,116.5-108.3,174.5c-1.9,3-5,5.1-7.5,7.7
	c-4.4,3.7-8.7,4-13.1-0.1c0.2-1.3,0.5-2.5,0.7-3.8c1.1-1.9,2.4-2,3.9-0.4c24.4-14,31-41.4,45.6-62.5c25.3-36.6,46.8-75.9,70.8-113.5
	c16.3-25.6-4.8-44.2-10.6-65.5C397.8,53.5,384.7,59.2,375.2,57.9z"/>
<ellipse class="st15" cx="108.2" cy="439.6" rx="1.2" ry="89.2"/>
<path class="st16" d="M43.6,452.3v76.4h-2.2v-78.3L43.6,452.3z"/>
<path class="st17" d="M291.1,313.1l13.1,0.1c0.1,1.5,0,2.9-0.4,4.4c-1.2-0.1-2.4,0.1-3.5,0.5c-8.7,2.5-16.5,9.4-26.5,4.8l-26.7-0.8
	C261,315.6,276.3,315.8,291.1,313.1z"/>
<path class="st18" d="M49.5,423.1v-29.7C62.3,405.4,54.4,414.4,49.5,423.1z"/>
<path class="st19" d="M295.6,308.9c-1.3,0.3-2.6,0.4-3.9,0.4h-31.3C272.1,306,283.9,300.7,295.6,308.9z"/>
<path class="st20" d="M358.7,72.9c-6.2,3.8-10.5,2.2-16.4,1.2C348.1,70,352.6,70.5,358.7,72.9z"/>
<path class="st15" d="M390,63.4c-5.5,4.9-10,2.3-18.6,3.4C379.7,60.9,384.3,62.5,390,63.4z"/>
<path class="st21" d="M88.5,600.1c21.6-31.2,41.3-63.3,48.5-101.4c4.3-3.9,0-10.7,4.8-14.4c5-0.5,8.2,1.9,10.5,6
	c2.4,13-2.4,24.6-7.8,35.9c-10.1,21.2-20.7,42.2-31.5,63c-9.4,18.1-21.4,33.6-42.8,38.3c-13.5,3-10.6,11.2-7.1,20.2
	c13.4,34.3,30.1,66.9,51.9,96.7c1.3,1.6,2.4,3.4,3.5,5.2c8.3,16.7,21.2,29.7,34.6,42.2c18.8,18.4,36.4,38,57.7,53.8
	c12.5,9.3,23.1,15.6,34.4-0.7c2-3,5.9-4.2,9.7-4.7c2.1,0.1,4.1,1,5.5,2.5c-2.5,3.6-5,7.2-7.5,10.8c-17.3,25.2-23,24.3-46.4,6.4
	c-44.1-33.8-82-75-112-121.8c-20.4-31.6-37.8-64.9-46.8-102.2c-3.1-13,0-18.7,12.7-18C74.5,618.6,82,610.4,88.5,600.1z"/>
<path class="st7" d="M260.5,842.5l-5.8-0.5c-2.2-17.4,9.8-26.4,21.5-35.1c14.4-10.7,31.3-16.4,48.2-20.8c19.4-5,31.9-16.5,41.3-33.4
	c6.1-10.9,11.1-22.3,18.3-32.6c36.2-51.5,103-49.2,133,6.2c13.2,24.3,25.6,47.2,53.1,58c8.2,3.2,17.3,9.7,13.2,22l-1.6,1.4
	c-13.1-9-25.8-18.5-41-24.1c-19.5-7.2-23.5-26.6-30.5-42.9c-11.3-26.3-28.4-42.1-58.6-44.1c-33.3-2.2-53.6,16.3-65.2,42.2
	c-16.3,36.5-40.5,57.7-80.3,65.5C286.9,808.2,270.2,823.1,260.5,842.5z"/>
<path class="st7" d="M380.5,782.3c3.7-16.6,12.4-30.9,21-45.2c11.6-19.5,28.9-28.1,51.4-26.9c22.7,1.2,37.5,15,44.2,34.2
	c10.4,30,29.8,48.6,58.2,61.2c17.6,7.8,26.2,25.3,30.9,43.4c2.3,8.7,6.1,16.4,9.4,24.4c-1.6,1.5-3.7,2.3-5.8,2.2
	c-6.5-1.5-10.2-6.1-11.5-12.1c-6.4-29.6-24.2-49.2-51.8-60.9c-6-2.5-11.3-6.9-16.2-11.3c-9.6-12.1-17.6-25.3-23.8-39.3
	c-14.7-32.6-41.9-37.4-68.1-12.7c-8.5,8.2-11.9,19.8-18.6,29.1C395,775,392.1,785,380.5,782.3z"/>
<path class="st22" d="M590.4,873.8l5.2-0.3c7.9,11.4,18.1,21,30,28.2c16.7,10.2,16,14.5,0.7,25.2c-9.6,6.7-19.4,9.4-30.7,8.6
	c-6.3,5.7-14.9,5.4-22.2,8.4l-30.8,0.6c-4.6,2-8.5,6.2-13.8,5.8c-35-2.3-70.7,6.6-105.1-6l-8.9-0.6c-1.4-2-0.9-4.7,1.1-6.1
	c0,0,0.1-0.1,0.1-0.1c10.2-5.7,21.3-3.7,32.2-3.9c45.2-0.7,90.6,3.5,135-8.9c10.4-2.9,21.5-3.9,31.4-10.7
	C609.9,898.5,585.3,894.8,590.4,873.8z"/>
<path class="st23" d="M380.5,782.3c18.9-9.7,17.5-34.5,34.2-45.8c2.1,2.3,3.5,5,2.5,7.9c-12.5,36.7-39.6,80-90,83.9
	c-2.1-0.6-4-1.7-5.6-3.2c-0.9-7.3,5-8.5,9.7-10.6c10.4-3.2,20.3-7.9,30.5-11.6c0.9-0.6,1.2-1.7,0.8-2.7c4.5-6.4,12.6-8.7,17.4-14.8
	C380.7,784.5,380.9,783.3,380.5,782.3z"/>
<path class="st11" d="M423.8,944.3c39.6,6.3,79.2,6.8,118.8,0.1c-0.8,1.2-1.5,3.3-2.5,3.5C501.1,954.1,462.1,959.8,423.8,944.3z"/>
<path class="st24" d="M270.6,894.5c-21-6-24.8-15.6-11.4-30.5c4.2-4.7,9.5-8.5,14.3-12.7c2.8,0.4,5.2,2.3,6.3,4.9
	c0.3,1.9,0.1,3.8-0.5,5.6c-1.4,2.6-3,5-4.8,7.2C265.9,876.5,273.9,886.4,270.6,894.5z"/>
<path class="st25" d="M415.1,938.7c-0.1,1.7-0.2,3.4-0.2,5c-18.8,4.5-35.1-6-52.8-8.6c-1.6-2.3-1.3-4.4,0.8-6.2
	c5.3-3.5,11.4-3.7,17.5-3.9C393,926.9,407.4,924.4,415.1,938.7z"/>
<path class="st26" d="M322.4,917.1c-10.4,2.2-18.7-2.6-26.5-8.5c-5.8-3.2-12.7-4-17.8-8.6l-4.4-4.6c4.5-4.9,10.1-4.7,16-3.6
	c11.6,6,26.4,6.3,34.2,19C324.4,913.1,323.8,915.4,322.4,917.1z"/>
<path class="st27" d="M322.4,917.1c0-1.5,0-3.1,0-4.6c11.3-7.3,21,1.1,31.3,3.2c2.1,0.5,4.2,1.2,6.3,1.8c6.5,4.4,18.3,1.1,19.8,13.2
	l-18.2,0.5c-7.4,4.3-11.8-2.1-17.3-4.8l-2-0.3h-2c-5.7-3.6-14.4-0.5-18.2-8.3L322.4,917.1z"/>
<path class="st23" d="M278.1,855.8l-4.6-4.5c0.8-0.5,1.2-1.5,0.9-2.4c8.4-11,17.8-20.9,31.2-25.8c5.2,0.2,10.6-3,15.7,0.5l1.6,2.3
	C309.2,837.7,297,851.9,278.1,855.8z"/>
<path class="st28" d="M291.1,896.1l-17.4-0.8c-0.9-0.7-2-1-3.1-0.9c-7-11-13-21.9,2.4-31.1C274.6,876.8,289.2,883,291.1,896.1z"/>
<path class="st7" d="M304.9,825.4c-11.5,6-17.9,18.8-30.5,23.5c3.1-17,15.6-23.8,30.5-28.1c1.4,1,1.8,2.1,1.4,3.1
	S305.3,825.4,304.9,825.4z"/>
<path class="st7" d="M361.7,802.9c-8.2,8.7-18.7,12.5-30.3,13.5c-4.6,2.4-9.2,3.4-13.7-0.4C332.2,810.9,345.5,802.1,361.7,802.9z"/>
<path class="st7" d="M379.9,785.3c-1.1,10.5-8.3,13.8-17.4,14.8C364.6,790.9,370.4,785.9,379.9,785.3z"/>
<path class="st29" d="M317.7,815.9l13.7,0.4l-10.1,7.3c-5.5,0.6-11,1.2-16.5,1.7c0-1.5,0-3.1,0-4.6L317.7,815.9z"/>
<path class="st11" d="M573.4,943.9c6.4-5.5,14.3-6.9,22.2-8.4C590.9,945.5,581.9,944,573.4,943.9z"/>
<path class="st30" d="M26.7,525.1c7.2,6.4,3.6,14.8,4.2,22.5C24.6,541,27.3,532.8,26.7,525.1z"/>
<path class="st31" d="M278.2,900c6.8,0.5,13.1,3.6,17.7,8.6C288.3,909.2,281.6,908,278.2,900z"/>
<path class="st31" d="M322.1,917.8l18.2,8.3C333.2,925.6,324.1,929.4,322.1,917.8z"/>
<path class="st11" d="M344.3,926.3l17.3,4.8c0.2,1.3,0.4,2.7,0.5,4C354.5,935.6,347.7,934.4,344.3,926.3z"/>
<path class="st32" d="M326.7,318c32.1-52,63-104.7,96.7-155.6c20.1-30.4,27.9-57.8,7.5-91.8c-15.9-26.6-9.2-34.6,21.2-35
	c48.3-0.6,96.5-1.6,143.4,12.6c16.8,4.3,33.6,8.9,48.5,18.5c4.9,34.7,0.7,69.6,2.3,104.4c0.8,18.1-2.6,36.3,2,54.2
	c-1.2,25.3,11.7,43.6,31.3,56.9c21.2,14.4,43,28.2,65.8,39.5c33.5,16.7,53.5,41.3,58.5,79c2.1,15.6,6.7,31.2,11,46.7
	c8.4,30.7-7.5,55-27,77.2c-10.1,11.5-19.4,23.7-29.1,35.6c-23.9,27-53.9,49.9-61.1,88.4c2.3,8.7,2.6,17.4-0.2,26.1l-0.2,4.4
	c5.3,12.9-1.6,27,4.1,39.8c-2.5,14.4,13,22.4,12.7,36l-7.3-1.4c-1.1-0.5-2.2-1-3.2-1.5c-28.9-43.2-26.8-88.4-8.1-134.5
	c0.9-2,2-4,3.3-5.8c11.9-16.2,26.3-30.5,37.6-47.2c16.4-19.8,33.3-39.2,49.9-58.7c13.6-15.9,17.2-33.6,14.3-53.4
	c-3.4-23.3-8.8-46.2-13.9-69.1c-4.1-18.3-14.6-31.9-31-40.7c-20.7-11.1-39.6-25.4-60.7-35.8c-47.2-23.3-64.3-63.9-65.1-113.6
	c-0.5-33.8-0.6-67.6,0.1-101.4c0.3-14.1-4.9-22.3-18.2-25.8c-46.3-12-93.3-20.4-141.2-19.8c-27.8,0.3-31.5,6.3-20.4,31.9
	c13.2,30.7,8.7,57.2-9.6,85c-30.6,46.6-59.1,94.6-88,142.4c-3.8,6.3-7.3,12.7-12.9,17.8c-3.7,3.1-7.7,5.4-12.8,4.1
	C324.2,324.3,324,321.1,326.7,318z"/>
<path class="st33" d="M763.2,569.3c27.7-26.7,56.3-52.2,66.4-92.1c4.6-18.3-2.7-34.6-5.5-51.1c-5.6-32.3-7.1-66.9-34.8-91.4
	c-19.8-17.6-43.1-30.7-66.2-41.7c-45.8-21.8-68.4-54.1-65.9-105c1.4-29.3-0.1-58.8,0.4-88.2c0.3-24,8.9-30.2,30.1-19.2
	c55.6,28.9,106.4,64.5,146,114.1c-1.7,1.5-3.9,2.3-6.2,2.2c-25.6-12.6-40.5-37.5-63.1-53.9c-23.2-16.8-46.8-32.7-72.3-45.8
	c-16.2-8.4-19.7-6.6-20,10.9c-0.6,33-0.7,66,0,99c1,43.3,32.6,60.8,65.6,77c62.5,25.7,91,73.3,101.2,139.4
	c7.5,48.4,2.5,87.7-32.6,122.9c-13.3,13.3-25.4,28.3-37.2,43.3c-5.8,7.4-11.5,15.5-22.5,15.9c-2.3-1.5-2.8-3.4-1.4-5.8
	C747.3,587.3,760.2,581.1,763.2,569.3z"/>
<path class="st34" d="M745.3,599.7l0.5,5.5c2.7,10.9-5.4,17.4-10.1,25.3c-18.5,30.6-15.3,78,7.2,106.2
	c26.5,20.2,52.8,40.7,85.9,49.2c1.9,1,3.6,2.3,5,3.9c-6.5,12.6-13.9,13.5-25.9,5.1c-20.8-14.6-43.5-26.5-64.7-40.6
	C695.1,721.9,696.4,631.8,745.3,599.7z"/>
<path class="st35" d="M828.4,194.9l5.2-0.3l44.2,57.3c17.9,35.9,38.2,70.8,48.6,110c5.4,20.4,12.5,40.5,12.8,61.9
	c-1.9,1.3-4.4,1.3-6.3,0c-7.2-5.3-8.2-13.7-9.7-21.4c-13.4-70.3-44.8-132.1-88.5-188.2C830.3,208.6,824.2,203.4,828.4,194.9z"/>
<path class="st36" d="M934.8,423.8l4.4,0c8.6,62,7.7,123.5-9.1,184.3c-2.7,9.8-4.7,20-11.5,28.2l-3-2.5c-7.3-16.7,3.2-31.4,6.2-46.6
	c7.5-39.4,12.3-78.6,8.1-118.8C928.3,453.7,924.8,437.6,934.8,423.8z"/>
<path class="st37" d="M833.9,789.8l-5.2-0.5c-3.6-5.6-0.8-10.2,2.3-14.8c12.5-16.1,27.2-30.6,36.1-49.3c2.9-6,6.5-11.5,13.9-12.9
	c2.1,0,4.1,0.8,5.6,2.4C874.7,743.7,852.1,765.2,833.9,789.8z"/>
<path class="st37" d="M886.6,714.7l-4.8-0.2c-2.1-23.9,12.5-40.5,25.3-58c2-1.1,4.5-0.8,6.1,0.8C909,678.7,897,696.3,886.6,714.7z"
	/>
<path class="st34" d="M701.3,719.1c-8.3-12.6-2.7-26.5-4.1-39.8C705.5,691.9,699.7,705.9,701.3,719.1z"/>
<path class="st36" d="M913.1,657.4h-4.4c-6.2-10.7-4.1-18.4,7.9-22.8l2,1.6L913.1,657.4z"/>
<path class="st38" d="M697.4,674.9c0.1-8.7,0.1-17.4,0.2-26.1C703.5,657.5,703.7,666.3,697.4,674.9z"/>
<path class="st33" d="M648.3,225.4c-6.7-6.7-3.9-15.2-4-22.9c-0.3-45.3-0.2-90.5-0.3-135.8c6.8,5.7,4.3,13.5,4.3,20.5
	C648.6,133.2,648.4,179.3,648.3,225.4z"/>
<path class="st39" d="M335.4,322.2c31.8-51.7,62-104.6,96.2-154.8c22.3-32.7,26.6-63,9-98.3c-11.2-22.4-8.7-25.3,16.7-26.8
	C511.3,39,564,46.9,616,61c15.6,4.2,22.2,12.1,21.5,29.4c-1.5,36.6-0.3,73.3-0.5,110c-0.2,43,15.3,76.7,54.9,97.6
	c20,10.6,39.1,23,58.6,34.7c5,3,10.2,5.8,15,9.2c39.5,27.8,53.7,133,22.7,170.1c-16.4,19.6-31.4,40.4-50.6,57.6
	c-13.1,13.7-26.6,27.1-35.6,44.1l0.1-0.1c-24.3,47.6-25.1,94.4,4.7,140.2v-0.1c12.4,18.1,3.1,28-12.5,38
	c-26.8,17.1-52.6,35.9-80.8,50.8l-2.8-1.7c-11.8-31.7-32.2-54.8-64.2-67.5c-14.3-5.7-18.4-19.6-23.6-32.7
	c-17-42.8-50.2-61.7-91.6-52.6c-26.8,5.9-43.5,24.9-53.9,47.9c-13.2,29.4-31.3,50.3-64.3,56.7c-27.3,5.3-46.7,21.7-61.8,45.1
	c-15.7,24.4-18.3,23.7-42.4,7.6c-22.3-14.8-39.3-35.1-58.3-53.5c-14.4-11.9-24.7-27.3-36-41.8v0.1c-19.6-31.8-39-63.5-52.4-98.7
	c-5.7-15-4.5-23.2,12.4-27.4c15.9-3.9,26-16,33.2-29.8c12.9-24.7,25.6-49.5,37.2-74.8c5.8-12.7,6.4-25.7,4.9-40.3
	c-3.1-30.5-1.5-61.5-0.7-92.3c0-8.2,3.7-16,10-21.2c1.9-1.5,4-2.7,6.3-3.6c43-8.5,87-10.9,130.1-19.3
	C311.1,340.1,325.1,334.8,335.4,322.2z"/>
<path class="st40" d="M705.7,881.9c0.1,1.5,0.1,2.9,0.2,4.4c-13,6.7-26,23.4-40.3,14.1C643,885.5,612,877,608,843c1.6-2,3.3-2,5-0.2
	l0.5-0.3c6.5,30.1,33.3,39.5,55.9,51.1C681.5,899.9,692.5,883.3,705.7,881.9z"/>
<path class="st41" d="M724.2,871.3c-4.6,3.1-9,2.7-15.1,0.2C714.9,868.2,719.3,868,724.2,871.3z"/>
<path class="st33" d="M326.7,318c-0.1,2.8-0.1,5.6-0.2,8.5c-1.9,15.7-15.5,15.4-26,17.8c-35.4,7.9-71.7,10.6-107.7,15.5
	c-10.1,1.4-20.2,2.6-29.7,6.3h0c-9.3,5.5-11.2,13.9-11,24.1c0.5,28.3,0.4,56.6,0,84.9c-0.1,5,3.7,11.8-4.2,14.9l-6.6-4.4
	c-3.5-33.7-3.5-67.7,0-101.4c3.2-23,17.1-29.7,39.5-31.6c41.3-3.6,82.2-11,123.2-17.8C313.5,333.1,319.8,324.5,326.7,318z"/>
<path class="st3" d="M141.4,384.1c0,33.8,0,67.6,0,101.4c-0.2,4.8,0.7,10-4.3,13.3c0-31.4-0.2-62.8,0.1-94.1
	C137.2,397.6,134.7,389.8,141.4,384.1z"/>
<path class="st42" d="M273.7,322.8l26.5-4.8c-7,8.6-16.6,9-26.5,8.5C273.7,325.3,273.7,324.1,273.7,322.8z"/>
<path class="st43" d="M612.9,842.8l-5,0.2c-10.7-10.5-5.3-31.8-24.6-36.6c-1.7-15.4-15.6-19-26-23.5c-18.2-7.8-30.1-19.9-36.8-38.1
	c-11.8-32-32.2-54.5-68.5-55.6c-36-1.2-59.5,18.9-72.4,50.5c-13.8,33.9-38.9,51-73.3,58.9c-24,5.5-41.5,20.6-51.7,43.5
	c-3.5,3.7-7.6,6.8-10.3,11c-7.7,12.2-15.7,12.4-26.8,3.8c-24.2-18.8-48.6-37.4-67.8-61.7c-1.8-2.2-1.6-4.1,0.7-5.7
	c23.5,19.7,43.1,43.6,70.6,59.2c11.3,6.4,16.7,4.1,20.9-3.7c19.8-36.5,52.9-53.2,91.1-62.7c14.8-3.7,23.5-14.1,30.3-26.7
	c6.3-11.6,12.5-23.3,19.4-34.5c17.5-28.3,42.6-41.3,76.1-37.6c30.8,3.4,52.2,21,62.8,48.4c9.1,23.5,22.3,38.7,45.7,49.2
	C592.7,792.3,605.9,816.2,612.9,842.8z"/>
<path class="st44" d="M148,489.9c0.3-32.8,0.4-65.7,1-98.5c0.2-10.6-1.3-23,14.2-25.4c-7,9.5-10.2,21.3-8.9,33
	c0.8,8.7-0.9,17.7,0.3,26.4c8.2,61.3-10.6,115.5-42,166.9c-9.4,15.4-19,29.8-37.4,34.9c-13.3,3.7-15,11.3-10,23.3
	c11.3,27.1,23.3,53.8,39.8,78.3c4.4,6.6,10.4,12.5,9.6,21.5C85,718.6,70,678.8,54.2,639.6c-3.6-8.8-0.1-16,10.8-17
	c21.7-2,33.9-16,41.9-34.3C121.3,555.8,145.7,527.4,148,489.9z"/>
<path class="st44" d="M150.5,789.4c-0.3,1.9-0.5,3.8-0.7,5.7c-14.6-12.7-28-26.4-35.1-44.9C130.1,760,137.6,777.2,150.5,789.4z"/>
<path class="st0" d="M278.1,855.8c14.2-11,26.3-25.3,44.8-29.9c51.2-8.7,76.9-43.5,91.7-89.5c23.2-28.3,56.8-25.6,73.8,6.3
	c8.2,15.2,15.9,30.7,23.8,46.1c9.8,8.9,20.1,16.6,32.6,21.7c8.2,3.3,15.1,9,20.1,16.2c14.8,21.2,11.7,36.6-12.7,43.8
	c-57.2,16.9-115.7,27.6-175.6,20.3c-28.3-3.4-56.8-6.9-84.3-15.1c-7.7-2.3-19-2.4-14.5-16.1C277.9,858.4,278,857.1,278.1,855.8z"/>
<path class="st45" d="M277.9,859.7c10.2,17.2,29.6,14.1,44.3,16.5c35.2,5.7,70.5,14.9,106.6,10.3c41.9-5.3,84.5-7.2,124.4-22.7
	c19.1-7.4,21.4-18.1,9.4-35.1c-5.7-8.1-13.6-12.8-22.2-17.1c-10.8-5.5-23.3-9.5-28.1-22.7c13.3,7.3,26.5,14.6,39.8,21.7
	c17,9,22.6,25.7,28.3,42.2c2.5,7.4,2.3,16.1,10,21c3.6,15,16.6,21.5,27.4,29.9c4.6,3.5,11.6,5.9,10.4,12.5c-1.1,5.9-8.3,4.6-13,6.2
	c-54.4,18.6-110.6,19.9-167.2,17.4c-11-0.5-21.9-0.8-32.9-1.1c-11.2-5.4-23.1-7.5-35.3-8l-21.8-9.8c-1-5.6,3.1-5.1,6.5-5.4
	c2.1-0.1,4.2-0.2,6.4-0.1c-1.3-0.2-2.7-0.2-4-0.1c-5.2-0.4-9.9,0.5-13.5,4.6l-30.8-7.4l-31.3-16.4c-8.5-9.5-28-13-18.2-32.7
	L277.9,859.7z"/>
<path class="st46" d="M353.2,919.8c6.6-13.5,17.7-3.1,26.3-6.1c-6,7.1-15.6,0.3-21.6,7.1L353.2,919.8z"/>
<path class="st44" d="M163.2,366c6.5-9.2,16.7-7.2,25.8-8.5c37.4-5.4,74.8-10.9,112.1-16.4c10.4-1.5,19.7-5,25.5-14.6l8.8-4.3
	c-2.3,17.3-17.3,22.6-29.7,24.9C258.5,355.6,211,362.6,163.2,366z"/>
<path class="st4" d="M706.8,753.8c-5.8-1-8.4-5.3-10.6-10.1c-18.7-41.6-17.9-83.3-1-125.1c0.9-2.2,4.5-3.3,6.9-4.9
	C682.9,661.1,683,707.9,706.8,753.8z"/>
<path class="st4" d="M701.9,613.8c5.6-19.7,18.5-33.6,35.6-44.1C728.1,586.3,714.7,599.8,701.9,613.8z"/>
<path class="st0" d="M740.7,741.5c-26.3-23.7-30.7-85.5-8.5-116.7c4.6-6.5,9-13,13.6-19.5c28.5-28.3,54.7-58.9,78.4-91.3
	c27.1-36.8,8.6-76,3.3-114.6c-6.4-46.8-30.3-79.7-73.4-99.2c-6.4-2.9-13.8-5.5-17.8-12.3c-65.9-41.1-66.5-37.8-65.8-120.6
	c0.2-22-0.2-43.9,0.2-65.9c0.2-9.1,1.8-17.2,14-10.9c65,33.8,122.8,75.9,162.4,139.2c29.9,67.4,45.3,138.1,40.8,211.7
	c-4.8,78.5-24.5,153.2-68.1,220c-9.2,6.8-16.1,15.6-21.6,25.6c-1,1.7-2.2,3.4-3.4,4.9c-10.8,15.4-25.6,27.8-34,45
	C755.4,744.2,748.9,746.3,740.7,741.5z"/>
<path class="st47" d="M842.6,229.7C803.1,165,743.2,125,675.2,88.8c0,48.3-0.9,92.9,0.5,137.4c0.5,16.1,13.3,26.8,25.8,36.5
	c11.4,8.8,27.3,11.2,34.8,25.2c-51.8-17.6-69.2-41-69.3-93.1c0-31.6,0.2-63.1,0-94.7c-0.1-16.1,5.7-19.3,20.2-12.2
	c54,26.6,99.7,64,141.1,107c27.2,39.4,55.9,77.7,74.7,122.4c14.4,34.5,21.9,70.7,31.7,106.4c5.8,71.3,3.2,141.9-18.2,210.9
	c-4.4,7-8.6,14-7.9,22.8c-9,19.1-18,38.1-26.9,57.2c-16.9,20.2-27,45.5-47.6,62.9c-7.7-11.8,2.3-19.3,7.6-26.8
	c27.4-39.6,50.8-81.2,65-127.5c0.8-5.8,1.5-11.7,3.5-17.3c17.4-62.1,19.3-124.9,8.2-188.2c-2.3-7.9-2-16.1-2.6-24.2
	c-0.5-6.5-3.6-12.3-5.8-18.3c-1.3-4-2.3-8.2-3-12.3C892.7,315,867.3,272.5,842.6,229.7z"/>
<path class="st48" d="M842.6,229.7c28.7,30.6,45.7,68.2,60.4,106.6c3.3,8.5,9.9,16.1,9.9,25.9c-2.3,4.4-3.9,8.7,0.2,13
	c2.8,4.5,5.6,8.9,8.4,13.4c-7.1,13-4,25.9-0.2,38.8c1.3,2.9,2.2-2.2-0.4-0.8c-0.7,0.3-1-0.2-1-1.7c-0.1-3.5-1.2-7.2,2.1-10
	c5,3.4,4.5,9,5.1,13.9c8,57.1,5.3,115.3-7.8,171.4c-0.8,3.2-4,5.9-6.1,8.8c-4.2,5.7-2.7,11.5-0.3,17.4
	c-18.2,49.7-43.4,96.5-74.8,139c-2.7,3.7-4.5,7.4-4,12c-1.8,4-3.6,8-5.4,11.9c-5.1,0.1-11.4,2.3-15,0c-24.5-15.7-51.7-27.4-73-47.8
	c7.5-0.2,14.7-0.8,18.1-9.1c11.9-14.6,25.5-27.8,35.3-44.1l0,0c6.5-8.4,13.4-16.5,17.7-26.5c26-32.2,39.8-70.9,50.9-109.3
	c12.3-42.4,20.9-86.2,19.8-131.3c-1.4-58.9-10.6-116-33.6-170.6C846.1,244,844.7,236.7,842.6,229.7z"/>
<path class="st49" d="M574.4,525.3c-4.8,9.3-15.6,8-22.8,13.1c-1.1-0.1-2.2-0.2-3.3-0.3c-14.7-8.9-29.3-5.9-44.2-0.3
	c-50.6,19.3-101.8,37-152.6,56c-17.1,6.4-30.5,5-44.4-7.2c-16-13.9-34.2-25.2-50.4-38.8c-6.6-5.6-15.6-11-13.7-20.9
	c1.7-9.1,11.6-9.7,19.1-12.5c23.7-8.9,46.6-12.1,68.8,4.6c9.5,7.2,21.5,6.7,31.7,2.7c35.4-13.8,72.5-23.6,106-41.9
	c1.8-1.5,5.1,0.9,4.9,0.7c-4.7-4.6,3.2-11.9-3.6-15.7c-26.8-14.5-45.2-38.4-64.6-60.6c-12.4-14.2,1.5-17.7,13.4-19
	c9.2,2.4,18.5,1.8,27.9,0.8c35.2,12.9,65.6,35.1,99.4,50.6c13.4,8.7,26.8,7.4,41.4,2.5c19.7-6.5,37.6-19.1,59.6-17.9
	c4.8,4.4,10.5,5.4,16.7,4.1c3-0.5-0.6-4.7,0.3-1.9c0.3,1.2,0,1.8-0.9,1.9c-4.1,0.4-8.2,1.1-11.3-2.7c9.6-16.8,25.2-18.9,41.5-14.8
	c13.6,3.5,23.1,13.8,24.6,28.1c1.8,17-9.1,27.1-22.9,34.2c-22.9,11.8-48.1,17.6-72.1,26.7C604.9,503.9,588.1,511.5,574.4,525.3z"/>
<path class="st50" d="M340.2,485c24.9,0.8,45.9-10.9,69.8-20.2c-17.6-22.9-40-38.5-58.4-57.9c-17.9-18.9-15.5-34,8.5-43.3
	c21-8.1,42.8-14.2,64.1-21.8c10.8-3.9,20-0.9,29.3,4.1c28.8,15.5,59.5,28.4,85.9,47.3c25.9,18.5,47.4,8.5,71.6,0.1
	c23.2-8,44.5-22.3,70.2-22.5c34.8-0.2,62.7,21.5,72.1,56.1c6.5,23.8-10.4,60-38.2,72.5c-38.5,17.3-78.6,31-119.2,42.6
	c-5.1,1.5-10.2,1.1-13.8-3.9c-1.4-1.9-1-4.6,1-6c0,0,0,0,0,0c43-11.6,85-26.3,125.9-44c22.4-9.8,32.7-29.5,30.5-53.1
	c-2.2-24.2-16.5-42.8-38.3-48.1c-17.6-4.3-34.8-0.5-51.6,5.6c-15.1,5.5-30.8,10.1-45.1,16.9c-24.9,12-47.5,11.8-70-4
	c-25.2-14.9-50.7-29.3-76.4-43.4c-14.6-8.1-28.5-9.3-44-3c-12.2,5-24.9,8.5-37.5,12.6c-25.7,8.6-27.6,17.2-7.2,35.8
	c11.9,10.9,23.4,22.2,36.2,32.1c4.3,4,8.6,8,12,12.7c8,11.2,6.9,20.3-6.6,26.2c-17.3,7.7-35.4,13.4-53.5,18.5
	c-9.4,2.7-19.1,1.3-22.9-10.5C335.8,484,337.7,483.4,340.2,485z"/>
<path class="st51" d="M340.2,485l-5.7,0.8c-1.2,0.9-2.9,2.2-3.8,1.7c-35.3-20.9-65.6,1.9-97.3,11.2c-10.4,3.1-20.4,8-30.5,12.3
	c-12.7,5.4-13,13-3.5,21.3c9.9,8.6,20,17.1,30.7,24.7c27.9,20,53.8,42.6,81.7,62.5c11.1,9.7,23.1,6.3,35.1,2.3
	c40.8-13.6,80.5-30.4,121.3-43.8c9-3,17.8-7.5,27-0.7c2,3.4,1.5,6.5-0.9,9.5c-16-9.2-25.2,11.7-39.7,8.9c-5,4.4-10.2,8.2-17.4,4.8
	c-29.2,11.3-58.4,22.8-87.7,33.9c-17.3,6.5-33,5.7-48.8-7.1c-35-28.5-71.3-55.5-107.1-82.9c-26.6-20.3-16-37.9,6.2-47.5
	c26.5-11.4,54.6-19.2,81.8-29.2C305.7,459,323.9,468.3,340.2,485z"/>
<path class="st52" d="M582.9,531.9l-0.8,6.2l-7.7-12.8c2.9-15.9,14.6-22.4,28.3-27.1c25.5-8.8,50.9-17.9,76.2-27
	c28.8-10.3,38.9-23,32.4-40.6c-7.2-19.7-26.5-23.7-53.9-10.9c-1.9,1.1-3.7,2.3-5.4,3.6c-1,2-2.1,2.3-3.6,0.4
	c-20,7-40.2,13.3-59.9,21.1c-16.3,6.5-31.2,7.2-45.5-3.9c-1.9-2-1.8-3.9,0.4-5.6c4.2-2.4,8.6-2.2,13.1-0.8c16.1,8.5,29.8-2,43.5-6.7
	c24-8.3,48-17,72-25.7c28.4-2.4,46.2,7.8,51,29.3c4.4,19.7-7.4,38-32,48.2c-32.2,13.4-66.7,21-97.7,37.4
	C588.2,520.8,587.7,527.9,582.9,531.9z"/>
<path class="st53" d="M627.4,649.5c11.3-0.2,21-1,27.5,8.1c5.1,7.2,4.4,14.6-2.5,19.1c-14.5,9.3-30.2,8.7-45.3,1
	c-7.6-3.9-9.6-11.3-5-18.5C608.4,649.5,618.8,648.8,627.4,649.5z"/>
<path class="st54" d="M592,742.2c-11.4-1.4-27.7,2.8-28-15.4c-0.3-17.9,15.3-16,27.4-16s27.5-1.7,27.2,16.3
	C618.3,743.8,603.4,741.1,592,742.2z"/>
<path class="st55" d="M608.9,73.7c16.9-4.9,22.2-0.8,22.1,12.2c-0.3,50.4-0.1,100.9-4.5,151.4v-67.3c0-25.6-0.3-51.3,0.2-76.9
	C626.9,83,625.5,74.9,608.9,73.7z"/>
<path class="st56" d="M494.2,586.8l-0.3-9.9c2.2-12.2,13.6-12.1,21.8-15.5c12.5-5.1,24-10.6,30.2-23.6c1.7-1.2,4-1.3,5.8-0.2
	l-0.1,0.8c5.4,22.7-12,30.1-27.2,33.6C512.3,574.8,503.6,580.5,494.2,586.8z"/>
<path class="st57" d="M609.2,640.9h38.5v1.9h-38.4C609.2,642.1,609.2,641.5,609.2,640.9z"/>
<ellipse class="st58" cx="447.9" cy="677.2" rx="27.5" ry="1.4"/>
<ellipse class="st59" cx="591.2" cy="752.2" rx="24.7" ry="1.5"/>
<path class="st60" d="M614.2,689.1h33.4l0.1,2.2h-33.5C614.2,690.5,614.2,689.8,614.2,689.1z"/>
<path class="st61" d="M437.2,600.5l17.4-4.8C454.3,606.5,451.2,607.4,437.2,600.5z"/>
<path class="st62" d="M466.9,102.2c0.3,2.7,0.7,5.4,0.8,8.1c0.1,4.2,0,8.4-2.8,12.9V103L466.9,102.2z"/>
<path class="st63" d="M694.9,360.2c-7.4,1.7-11.8,3.3-16-0.8C683.8,356.8,688.2,356.9,694.9,360.2z"/>
<path class="st64" d="M450.4,933.7c23.3-10,46.3-8.7,69.4,0H450.4z"/>
<path class="st65" d="M794.1,688.3c-6,19.3-19.6,32.5-35.3,44.1C766.4,714.4,780.8,701.7,794.1,688.3z"/>
<path class="st66" d="M729,710.1v-60.4h2v60.4H729z"/>
<path class="st18" d="M835.1,402.3v-29.9C844.1,384.1,844.4,392.9,835.1,402.3z"/>
<path class="st67" d="M811.8,661.8c1.1,13.5-8,20.1-17.7,26.5C796.9,677.4,802.3,668.3,811.8,661.8z"/>
<path class="st48" d="M922,414.8v12.8c-7-13.2-16.7-26.4-0.4-39C921.7,397.3,921.9,406.1,922,414.8z"/>
<path class="st68" d="M912.9,626.3c-6.1-6.6-5.1-14.3-2.7-21.8c0.9-2.7,3.9-1.6,1.9,0.4c-0.5,0.5,0.7,2.6,1.1,4L912.9,626.3z"/>
<path class="st69" d="M913.2,375.2c-0.9,1.7-1.6,7-3.4,3.5c-2.6-4.9-2.8-12,3.2-16.5L913.2,375.2z"/>
<path class="st70" d="M551.7,537.7l-5.2,1.2c-19.9-4.4-37.7,4.2-55.2,10.7c-28.2,10.5-57,19.3-84.5,31.7c-20.5,8-41.8,13.7-62,22.6
	c-10.6,4.7-20,3.9-28.8-3.1c-24.7-19.5-51.3-36.7-74.5-58.1c-13.5-12.4-12.1-22.8,4.5-29.7c12.8-5.3,26-9.9,39-14.9
	c15.4-5.9,27.5,1.7,38.6,10c14.5,10.9,28,12,44.8,4.5c24-10.8,49.6-18.1,74.2-27.7c18.6-7.3,20.5-12.1,6.7-25.3
	c-16.8-16.1-30.4-36-52.4-46.3c-2.8-1.8-5.1-4.4-6.6-7.5c1.2-24,32.8-41.4,56.2-30.4c13.1,6.2,25.5,14.1,38.4,20.6
	c1.9,0.8,3.8,1.7,5.5,2.7c6.3,4.5,12.8,8.9,20,11.9c1.8,0.8,3.5,1.7,5.1,2.7c6.6,4,13.2,8,20.4,10.8c1.8,0.9,3.5,2,4.9,3.4
	c2,2.5,3.1,5.1,2.3,8.4c0,1.6,0,3.2,0,4.8l-97.8-52c-8.7,2.5-17.3,2.8-26-0.2c-12,1.9-21.3,4.3-7.2,17.5
	c20.2,18.8,39.9,38.3,59.8,57.4c3.4,5.8,3.3,11.5,0.1,17.3c-16,18.2-40.3,19.6-60.3,29.5c-13.6,6.7-28.7,10.5-43.1,15.7
	c-12.8,4.6-27.4,8.5-37.9-0.3c-29.6-24.8-56.7-8.9-87.7,1.3c25.2,26.3,54.2,43.6,80.3,64.3c9,7.1,18.2-0.1,26.9-3.2
	c55.6-19.7,111.3-39.4,166.8-59.8C531.6,523,542.5,525.7,551.7,537.7z"/>
<path class="st71" d="M472.1,481c0-5.8,0-11.5-0.1-17.3c0.1-0.7,0-1.6,0.4-2.1c0.8-0.9,1.6-1.7,2.6-2.4c2.4,8.5,2.5,17.6,0.1,26.1
	c0,0-1.5,0-1.6-0.3C473,483.7,472.5,482.3,472.1,481z"/>
<path class="st72" d="M419.4,388.7l26,0.2C436.7,395,428,395.2,419.4,388.7z"/>
<path class="st73" d="M648.5,423.7c1.1-0.4,2.4-0.6,3.6-0.4l18,1.6C659.9,429.1,653.9,429.8,648.5,423.7z"/>
<path class="st74" d="M582.9,531.9c0.7-5.5-2.7-11.8,3.3-16.2l2.8,1.4c5.3,6.2,11.7,5,18.1,2.5c31.5-12.1,64-21.6,94.7-35.6
	c37.6-17.2,42.5-60.1,10-82.9c-16.2-11.4-34.8-10.3-52.8-4.4c-23,7.6-46.1,14.7-68.7,23.5c-27.3,10.7-40.8,7.2-61.9-15.4
	c1.1-3.4,2.6-6.2,6.9-3.9c39.8,27,73.5-2,108.9-12.6c22-6.6,42.8-15.1,66-4.9c41.6,18.4,50.4,78.6,12.4,102.9
	c-37.7,24.1-82.3,33.9-124.7,47.7C593.6,535.7,587.9,532.8,582.9,531.9z"/>
<path class="st75" d="M308.2,622.6c-38.3-29.2-76.9-58-114.7-87.8c-13.3-10.5-11.4-21.8,4.1-28c30.5-12.1,61.6-22.8,92.4-34.3
	c18.3-6.8,29.6,9.1,44.5,13.3c7.1,8.3,15.4,9.3,25.5,5.4c13.5-5.3,27.6-9.4,41.2-14.6c23.5-9,23.4-9.3,5.1-27.5
	c-2-2.1-3.8-4.4-5.7-6.6c1-1.9,2.9-3.2,5-3.6c10,0.5,15.6,7.5,20.4,14.9c7.3,11.2,6.3,21-6.6,27.2c-21.2,10.2-43.4,17.8-65.9,24.5
	c-11.9,3.6-21.9-2.6-30.6-9.1c-15.8-11.9-31.3-12.8-49.4-5.5c-19.7,7.9-39.5,15.6-59.9,21.9c-13.8,4.3-16.4,10.7-3.5,20.6
	c29.1,22.3,58.4,44.3,87,67.2c6,7,17.9,9.5,16.9,21.9c-1.4,1.6-3.9,1.8-5.5,0.4C308.4,622.8,308.3,622.7,308.2,622.6z"/>
<path class="st76" d="M535.3,401.1l-5.8,5c-23.5-4-41.7-19.3-62.3-29.3c-12.3-6-23.5-18.1-37.6-15.6c-21.4,3.8-42.1,11.7-61.6,21.9
	c-8,4.2-4.6,9.3-0.3,14c7.3,8.2,16.5,14.4,24.2,22.1c5.8,5.8,15.2,10.3,10.3,21.5c-0.6,0.6-1.1,1.2-1.7,1.9
	c-15.1-13.8-30.5-27.2-45.2-41.5c-12-11.7-10.1-22.8,5.4-29c21.7-8.6,44-15.9,66.1-23.4c6.3-2.1,13.5-2.3,19.4,1
	C476,366.7,507.7,380.4,535.3,401.1z"/>
<path class="st77" d="M308.2,622.6l5.3-0.8c50.7-9.9,97.3-32.3,145.9-48.5c20.7-6.9,42.1-12.5,61.1-24.4
	c-36.9,6.5-69.8,26.2-106.7,32.9c-3.5-0.3-6.6-1.4-8.7-4.4c38.4-18.6,79.2-30.9,119.3-44.7c8.5-2.9,15.5,1.2,22,6.2
	c1.5,12-5,18.1-15.3,22.6c-12.3,5.4-26.3,6.9-37.3,15.5c-50.4,12.7-97.5,34.7-146.6,50.9C333.6,632.4,319.2,639.4,308.2,622.6z"/>
<path class="st74" d="M586.2,515.7c23.8-18,53.8-21.2,80-33.5c6.6-3.1,13.8-4.9,20.6-7.5c25.9-10.1,35.7-23.6,31.2-42.9
	c-4.5-19.5-18.8-27.3-46.7-25.4c-2.2,1.9-4.2,1.7-6-0.6c3-12.1,12.6-13.9,22.3-12.2c19.3,3.4,33.9,13.6,40.2,33.1
	c5.9,18.2,1.3,36.6-13.6,45.4c-38.9,22.9-80.9,39.4-126.4,45.2L586.2,515.7z"/>
<path class="st76" d="M665.8,405.5l5.6,0.9c-32.3,12.2-64.6,24.5-97,36.6c-7.3,2.7-14.3,2.3-19.4-4.9c0.9-2.1,2.6-3.9,4.6-4.9
	c27.7-7.4,54.3-18.1,81.3-27.5C649.1,402.8,657.4,398.6,665.8,405.5z"/>
<path class="st75" d="M543.1,436.1l-5.5-7.1c9.7-6.5,15.6-3,18.8,7.3c-0.5,0.6-1,1.2-1.5,1.8L543.1,436.1z"/>
<path class="st78" d="M556.4,436.3c-5.5-4.5-11.1-8.6-18.8-7.3l0.2,0.1c-8.9-4.5-16.3-11.9-26.5-13.8l0.2,0.2
	c-6.2-6.6-14.8-9.2-22.5-13.2l0.3,0.2c-11-6.8-23.5-11.6-33.2-19.6c-20.1-16.5-38.3-6.8-56.8,0.9c-10.2,4.2-14.6,11.9-5,21.7
	c2.3-0.4,3.7,0.4,3.6,2.9c17.9,16,35.1,32.8,51.5,50.3c11.9,12.7,9.6,22.7-6.2,28.2c-26.9,9.4-53.8,19.1-80.4,29.1
	c-14.7,5.5-27.2,4.7-38.7-5.2c-16.2-13.9-32.5-17-52.1-6.5c-8.7,4.7-18.9,7.5-28.6,10.8c-15.8,5.4-16.5,13.2-4.2,24.6
	c20.8,19.5,45.9,33.7,66.8,53.1c-0.1,6.8-4.2,10.1-10.3,11.7c-32.6-24.6-65.3-48.9-97.5-73.9c-11-8.5-8.6-15,4.7-19.6
	c29.6-10.2,59-20.9,88.2-32.4c12.4-4.9,20.9,3.8,27.6,8.8c16.7,12.8,32,17.1,51.5,7c12.2-6.3,25.9-9.7,38.7-14.9
	c21.5-8.8,22.6-16.9,4.7-32.8c-3.1-2.8-7.5-4.2-11.3-6.3c-5.9-17.3-23.2-23.5-34.7-35.5c-16.8-17.5-16.7-21.5,4.8-30.5
	c17.5-7.3,35.5-13.4,53.3-19.9c5.8-2.1,11.1-1.3,16.7,1.9c29,16.7,58.1,33,87.2,49.4c33.6,27.1,64.9,5.1,97.1-4.1
	c18.6-5.3,35.6-16.5,56.5-14.4c31.9,3.3,52.3,18.9,55.5,44.4c3.4,27.1-12.7,51.1-41.5,61.6c-30.1,10.9-60.3,21.8-90.5,32.6
	c-9.2,3.3-19.4,8.8-18.7-8.9c37.5-13.6,75.3-26.7,112.5-41.1c21.7-8.5,30.2-34.1,19.9-54.6c-10.6-21.2-33.7-27.9-54.4-16
	c-31.9,3.7-59.1,22.3-90.1,28.7C569.2,435.6,563,437.3,556.4,436.3z"/>
<path class="st75" d="M304.6,595.7c-23.6-18.3-47.7-36-70.8-55c-14.3-11.7-11.9-23.4,5.6-27.8c8.1-2,14.6-6.3,22-9.3
	c24.2-9.9,47.2-14.2,68.5,7.2c10.7,10.7,24.1,3.7,35.4,0.2c25.8-7.9,51.2-17,76.3-26.7c11.6-4.5,15.6-11.4,4.7-23
	C430,444,409,430.7,398,408.4c27,13.2,44.8,37,64.8,57.9c9.5,10-1.8,18.1-10.4,21.5c-32.1,12.5-64.7,23.6-97,35.5
	c-13.3,4.9-22.3-4-32.3-9.5c-8.9-4.8-17.1-15.2-27.1-12.5c-19.7,5.3-38.7,13.2-57.4,21.5c-8.2,3.7-3.5,9,1.9,13.1
	c26.2,20.1,52.2,40.3,78.3,60.5c6.9,5.3,13.3,6.3,22.2,2.8c21-8.3,42.8-14.7,64.3-21.8l9.7,0.7c0.5,3.2-0.6,5.9-3.5,7.1
	c-25.3,10.6-50.5,21.9-77.4,27.6C321.1,615.7,307.6,612.8,304.6,595.7z"/>
<path class="st75" d="M394.4,405.5c-13.4-10.5-13.7-17.1,3.2-25.9c38.4-20,64.9,0.8,91.8,23c-12.9-1.6-23.7-8.8-33-16.4
	c-19.5-15.8-37.2-5.9-55.4,0.9C392.3,390.4,392.1,397.8,394.4,405.5z"/>
<path class="st75" d="M511.3,415.4c12.3-2,19.8,5.1,26.5,13.8C527,428.3,519.5,421.2,511.3,415.4z"/>
<path class="st75" d="M489.1,402.3c9.9,0.4,18.3,3.1,22.5,13.2C503.1,412.7,494.4,410.3,489.1,402.3z"/>
<path class="st79" d="M304.6,595.7c12.9,14.4,26.7,15.6,44.5,7.2c21.1-10,43.8-16.6,65.8-24.7c32.8-12,65.6-24.1,98.5-36.1
	c6.6-2.4,15.2-8.3,19.1,0.5c4.5,10.2-6.2,13.7-13.3,16.3c-46.6,17-93.3,33.3-139.9,50c-13.7,4.9-27.7,9.2-41.1,14.8
	c-9,3.8-16.8,4.1-24.7-1.8l-17.8-17.2C297.2,600.5,300.5,597.3,304.6,595.7z"/>
</svg>
