<svg id="Capa_1" data-name="Capa 1" xmlns="http://www.w3.org/2000/svg" viewBox="0 0 975.25 975.25"><defs><style>.cls-1{fill:#fefefe;}.cls-2{fill:#b2e49e;}.cls-3{fill:#050605;}.cls-4{fill:#040605;}.cls-5{fill:#060807;}.cls-6{fill:#7fb3f9;}.cls-7{fill:#040505;}.cls-8{fill:#151813;}.cls-9{fill:#111616;}.cls-10{fill:#1c222a;}.cls-11{fill:#4c5e46;}.cls-12{fill:#6183ae;}.cls-13{fill:#070908;}.cls-14{fill:#1a2117;}.cls-15{fill:#374631;}.cls-16{fill:#88ae79;}.cls-17{fill:#b9eca4;}.cls-18{fill:#b6e9a2;}.cls-19{fill:#526949;}.cls-20{fill:#b3e59f;}.cls-21{fill:#bbefa6;}.cls-22{fill:#b7eaa3;}.cls-23{fill:#0d0f12;}.cls-24{fill:#1f2c22;}.cls-25{fill:#84a975;}.cls-26{fill:#1d2a20;}.cls-27{fill:#1f2b22;}.cls-28{fill:#2a3c2e;}.cls-29{fill:#334637;}.cls-30{fill:#7cb288;}.cls-31{fill:#293525;}.cls-32{fill:#2d3928;}.cls-33{fill:#0a0c0b;}.cls-34{fill:#192028;}.cls-35{fill:#131818;}.cls-36{fill:#121715;}.cls-37{fill:#26372a;}.cls-38{fill:#2e4233;}.cls-39{fill:#223125;}.cls-40{fill:#080a0a;}.cls-41{fill:#9cc5fa;}.cls-42{fill:#638abe;}.cls-43{fill:#84b9fb;}.cls-44{fill:#191f16;}.cls-45{fill:#729cd1;}.cls-46{fill:#7290b2;}.cls-47{fill:#94d4a3;}.cls-48{fill:#95d6a4;}.cls-49{fill:#92ca97;}.cls-50{fill:#94d5a3;}.cls-51{fill:#f7f4f7;}.cls-52{fill:#8bafdd;}.cls-53{fill:#90b6e4;}.cls-54{fill:#b0afb0;}.cls-55{fill:#2b3744;}.cls-56{fill:#232c37;}.cls-57{fill:#a2cdfb;}.cls-58{fill:#95bdee;}.cls-59{fill:#a0c9f8;}.cls-60{fill:#a4cffc;}.cls-61{fill:#a3cefc;}.cls-62{fill:#a6d1fc;}.cls-63{fill:#a0cafb;}.cls-64{fill:#a2ccfc;}.cls-65{fill:#97beef;}.cls-66{fill:#95d7a5;}.cls-67{fill:#a8dfa0;}.cls-68{fill:#b9eda4;}.cls-69{fill:#a7dfa0;}.cls-70{fill:#96d7a5;}.cls-71{fill:#99dca9;}.cls-72{fill:#d2d0d2;}.cls-73{fill:#fcfafc;}.cls-74{fill:#fcfbfc;}.cls-75{fill:#fbfafb;}.cls-76{fill:#181b20;}.cls-77{fill:#171c21;}.cls-78{fill:#161a1f;}.cls-79{fill:#313b48;}.cls-80{fill:#090a0c;}.cls-81{fill:#0a0b0c;}</style></defs><path class="cls-1" d="M1457,550.81c0,156.42-.17,312.85.33,469.28,0,12.6-1.87,16-15.56,16q-471.58-.78-943.16,0c-14.65,0-16.46-4.4-16.45-17.3q.54-470.39,0-940.77c0-13.29,2.4-17.12,16.65-17.1q470.47.75,941-.08c15.83,0,17.71,4.13,17.65,18.45C1456.78,236.48,1457,393.64,1457,550.81Z" transform="translate(-482.13 -60.87)"/><path class="cls-2" d="M703.48,157.89c14.34-7.07,35.39-.48,43.07-21.13,13.27,7.66,26.19,5.83,39.84.08,22.93-9.64,46-19.32,70.71-23.7,32.2,1.82,60.5,49.7,43.84,78.38C867.38,249.27,831.74,305.84,795.51,362c-3.54,5.48-7.65,11.12-15.66,10.17-7.85-6.39-17.35-4.15-24.59-4.36,5.19,1.74,13.13-2.72,19.52,2.82a6.13,6.13,0,0,1-2.18,6c-13.81,7.88-29.83,6.65-44.48,11.05-25.49,2.13-50.21,9-75.72,11.67-28.41,3-43.63,22.94-44.66,53.44-.87,25.58-1.18,51.24,0,76.78,1.18,25-4.19,47.57-16.81,69.12-8.47,14.47-14.51,30.37-23.09,44.83-10.81,18.21-20.16,21.09-42.28,14.41-10.4-13.55-12.39-30.33-12.86-45.87-2-65.1-5.35-130.42,16.4-193.75a590.29,590.29,0,0,1,44-98c31.24-49.76,67.37-95.13,116.54-128.74,5.42-3.7,9.74-8.84,15-12.76C715,171,710.69,164.47,703.48,157.89Z" transform="translate(-482.13 -60.87)"/><path class="cls-3" d="M917.83,1018.45c-88.67-5.72-168.36-37.06-237.51-91.32-143.7-112.73-206.76-261.63-183.69-443,14.94-117.38,71.46-214.76,161.87-291.6,10.88-9.25,19.63-21.89,34.6-25.85,5.22-.65,10.22-8.9,15.38-2.12s-.17,12.33-5.42,16.59c-25.46,20.63-50.92,41.1-73.34,65.29a416.44,416.44,0,0,0-54.28,73.74Q504,442.76,513.29,584.26c.3,8-.88,16,1.6,23.86A207.2,207.2,0,0,0,523.67,653c6,13.89,16.69,6.22,25.83,5.68,6.58-.38,9.5-9.1,17-7.51a15.15,15.15,0,0,1,6,10.81c-2,11.52-9.78,19.21-20.34,20.25-23.47,2.3-17.8,16.23-12.78,29.29,17.65,46,41.93,88,72.58,126.89,24.78,31.47,55.63,55.74,85.14,81.84,12.46,11,22.12,8.34,30.72-4.5,3.66-5.47,7.43-10.88,10.86-16.52,14-22.12,33.23-36.41,59.19-42.13,28.29-6.23,48.85-22.67,60.5-49.67,5.56-12.9,12.8-24.8,22.87-34.78,33.88-33.57,87.15-26.4,110.6,15,4,7,8.23,14.11,10.41,21.83,4.57,16.15,14.87,26.22,29.9,32.92,12.74,5.68,24.84,12.75,34.57,23.13,10.07,12,18.5,25.89,21.21,40.6,5.91,32.08,33.87,40.29,55.33,55.16,13.26,9.19,26.15-6.94,40.12-5.07,4.46,1.13,9.13,2,8.95,8.19-54.59,30.26-112.39,50.15-175.12,54-13.33,4.61-27.47-1-40.82,3.29h-17.8C945.26,1017.48,931.14,1023.06,917.83,1018.45Z" transform="translate(-482.13 -60.87)"/><path class="cls-4" d="M1366,298.73c29.22,31.31,43.71,70.69,55.12,110.25,53.49,185.48,10.69,346.95-125.68,483.37-12.5,12.51-28.09,21.94-42.24,32.8-13.53-7.61-2.84-14.54,1.6-19.7,26.2-30.47,26.27-30-8.66-51.41-17.28-10.57-36-19.21-50-34.64a42.56,42.56,0,0,1-3.86-5.09c-7-11.06-14.34-22-14.26-35.89-.54-11.86.67-23.79-1.56-35.57a30.26,30.26,0,0,1-.21-6.38c2.11-9.24,1.85-18.52.32-27.83,5.78-40.53,33.05-65.74,63.37-88.78,4.71,1.53,7.1,5,8,9.65-.34,14.37-11.67,22.59-18.63,33.26-36.14,29.12-35.12,68.93-29.2,108.8,2.2,14.82,12.19,28.06,25.54,37.28,21.73,15,44,29.09,67.1,41.94,7.64,4.26,13.4,5.37,18.26-3.07,19.1-24.16,40.83-46.43,53.56-75.12,9.28-18.55,21.66-35.68,25.67-56.63a149.79,149.79,0,0,1,6.92-23.2c22.21-58.69,27.86-119.16,19.6-181.11-1.08-8-1.06-16.07-1.16-24.1-4.84-54.3-24.76-103.57-50.26-151-4.45-8.29-10.72-16-10.24-26.28C1356.39,304.17,1356.78,297.26,1366,298.73Z" transform="translate(-482.13 -60.87)"/><path class="cls-5" d="M1245.35,630.12l-4.44-8.91c-.13-16.49,13-25.14,21.76-36.24,15.43-19.46,34.63-37.81,29.5-65.63-5.55-30.06-10.74-60.38-21.28-89.26-5.22-14.31-16.13-24-29.15-31.66-25.85-15.25-51.86-30.24-77.15-46.38-25.72-16.42-41.37-38.93-40-70.88-1.13-48.3,2-96.63-1.81-144.82-10.45-16.64-32.16-13.09-45.18-25.12C1076,97,1091,103.94,1095.39,97.39,1212,129,1300.93,197.88,1366,298.73c-6.31,2.85-6,8.59-6.12,14.11-10.92.45-14.26-9.11-18.92-15.65-9.71-13.6-19.87-26.81-30.4-39.77-38.6-46.35-86.33-81.09-139.35-108.9-19-10-26.41-6.05-25.76,15,1.32,43-5.79,86.3,5.26,129,4.36,16.85,14.1,28.39,27.77,37.86,21.7,15,44.71,28,67.54,41.07,32.62,18.63,53.56,43.31,59.2,81.68,2.74,18.63,6.79,37.32,10.5,55.93,5.21,26.17-.19,48.87-17,69.7-10.57,13.09-19.83,27.3-31.75,39.26C1261.08,624,1256.17,632.62,1245.35,630.12Z" transform="translate(-482.13 -60.87)"/><path class="cls-6" d="M1244.71,930.38l-29.1,20.82c-9.22-4.52-18.31-10.14-28.87-3.37-15.09,6.12-29.73,19.6-46.81,7.36-18.74-13.42-45.29-20.1-47-49.77,2-6.72,6.95-10.91,12.87-14,21.33-11,39.81-26.53,60.56-38.32,15.35-8.72,23.67-20,22-37.89,2.85-1.94,5.58-2.72,7.88.78l-.22-.22c14.23,17.33,34.47,26.24,52.89,37.69,4.92,3.06,10.19,5.45,15,8.8,20.4,14.12,21.24,19.48,1.2,35.15C1253.78,906.28,1244.4,915,1244.71,930.38Z" transform="translate(-482.13 -60.87)"/><path class="cls-7" d="M1095.39,97.39c-.69,11.76-13.53,5.17-17.68,11.7-15.58,7-30.42-1.1-45.09-3.47-35.21-5.68-70.39-1.91-105.55-3.08-14-.47-16.47,6.42-12,18.11,1,2.74,1.24,5.85,2.86,8.31,23.43,35.59,13.07,67-9,99.42-34.27,50.29-63.69,103.75-96.79,154.87-21.4,24.89-52.78,23.65-80.52,26.58-26.76,2.83-52.66,10.76-79.81,11.1-15.85.2-19.78,15-24.11,27.54-5.32,35.68-.9,71.55-2.38,107.27-2.9,38.5-26.63,68.14-43.28,100.77A9.33,9.33,0,0,1,570.68,661c-3.58-1.92-4.37-5.24-4.47-8.91-1.23-13.48,7-23.83,13.24-34,21.88-35.48,30.91-73.25,26.78-114.79-1.73-17.38-.59-35.08-.21-52.62.68-30.85,12.05-48,41.83-52.58,34.48-5.28,68.71-12.89,103.64-15,9.91-1.29,20.08-1.59,28.93-7.21a48,48,0,0,1,6.15-2c6.54-2.5,10.67-7.62,14.16-13.32,32.54-53.17,66.12-105.69,98.44-159,13.85-22.85,5.91-69.78-13.73-86.73-8-6.86-18.49-2.3-27.62-4.14-7.82-1.57-21.34,3.53-18.17-13.35l7.4-1.26c10.7-2.78,22.53-1,32.24-7.82l8-.83a662.12,662.12,0,0,1,160.46,0l8.06.8c9.7,6.89,21.52,5,32.22,7.83Z" transform="translate(-482.13 -60.87)"/><path class="cls-5" d="M839.65,97.39c5.3,14.27,17.93,8.51,26.36,7.41,17.65-2.3,26.82,5.62,32.67,20.23,6.18,15.41,14.79,30.56,17.14,46.58,2.42,16.54-9.61,30.85-18,44.59-29.43,48.21-59.73,95.89-89.91,143.64-5.29,8.38-9,19.17-22.08,18.54a6,6,0,0,1,.76-6C824.4,314.37,859.66,254.73,896.43,196c15.85-25.31-1.93-73.16-29.09-81.69-33.66,1.86-62.57,18.84-93.52,29.3-16.15,5.45-19.75,2.43-17.54-14.83A334.16,334.16,0,0,1,839.65,97.39Z" transform="translate(-482.13 -60.87)"/><path class="cls-8" d="M574.8,316.37c25.2-50.66,65.39-88.26,108-123.77,5.57-4.65,11.54-8.85,16.85-13.78,3.33-3.1,10.34-5.91,5.6-11.75-1.66-2-7.94-.35-12.1-.36l10.37-8.82c18.62,5.92,20.37,11.48,6.21,23.68-18.3,15.76-37.9,30-55.92,46.11-29.16,26-51.6,57.82-74.09,89.49C577.76,318.63,576.15,318.28,574.8,316.37Z" transform="translate(-482.13 -60.87)"/><path class="cls-9" d="M1183.56,960.73c-36.85,22.7-60.06-6.7-86.49-23-4.06-2.51-8.7-7.45-9.22-11.74-2.65-21.5-14.82-38.72-23.93-57.33l2.47-2.17c22.63,2,19.16,23.15,26.61,36.28,4,18.46,41.94,56,59.82,56.87,13.26.63,23.31-10.41,35.53-14.54,18.2-4.31,20.48-3.21,21.93,10.57l-8.74,1.3C1195.33,957.18,1188.82,956,1183.56,960.73Z" transform="translate(-482.13 -60.87)"/><path class="cls-10" d="M1244.71,930.38c-8-13.7.41-21.45,10.08-29.41,29.92-24.63,29.16-22-4.19-43.3-19.27-12.31-43.06-19.31-54.61-41.87,25.26,16,50.33,32.26,75.88,47.76,15.54,9.43,15.18,17.54,3.28,31-8.07,9.12-28,11.16-21.93,30.58C1252.49,930.31,1248,929.36,1244.71,930.38Z" transform="translate(-482.13 -60.87)"/><path class="cls-5" d="M1047.71,87.5l-160.46,0A370.08,370.08,0,0,1,1047.71,87.5Z" transform="translate(-482.13 -60.87)"/><path class="cls-11" d="M756.28,128.8c-1.43,16.49,6.54,16.82,18.82,11.46,24.15-10.55,48.55-20.41,74.17-27,7.11-1.84,13.86-4.83,21.41-3,.73,10.9-10.68,2.92-13.33,8.57-28.05,5.46-54,17-80.31,27.58-13,5.22-24.25,6.16-30.49-9.56A12.25,12.25,0,0,1,756.28,128.8Z" transform="translate(-482.13 -60.87)"/><path class="cls-12" d="M1210.28,955.66c-3.06-14.32-13.69-8.73-22.3-8.47q-2.32-1.4-1.62-2.88c.48-1,1-1.52,1.47-1.52,12.52-8,22.11-6.22,27.77,8.42C1213.83,952.68,1212.05,954.17,1210.28,955.66Z" transform="translate(-482.13 -60.87)"/><path class="cls-5" d="M1088,96.13c-11.17-.84-24.07,5.44-32.22-7.83A80.89,80.89,0,0,1,1088,96.13Z" transform="translate(-482.13 -60.87)"/><path class="cls-5" d="M879.29,88.31c-8.16,13.25-21.06,7-32.24,7.82A80.93,80.93,0,0,1,879.29,88.31Z" transform="translate(-482.13 -60.87)"/><path class="cls-13" d="M976.39,1021.74c13.11-7.29,27.18-2.5,40.81-3.29C1003.91,1023.4,990.14,1022.39,976.39,1021.74Z" transform="translate(-482.13 -60.87)"/><path class="cls-13" d="M917.83,1018.45c13.62.8,27.68-4,40.76,3.29C944.87,1022.39,931.11,1023.39,917.83,1018.45Z" transform="translate(-482.13 -60.87)"/><path class="cls-13" d="M1183.56,960.73c4.75-7.17,9.73-13.26,18-3.77-1,5-3.14,8.68-9.21,7.48Z" transform="translate(-482.13 -60.87)"/><path class="cls-14" d="M755.84,387.42c-36.7,4.72-73.61,8.24-110,14.56-25.52,4.42-35.13,18.79-35.46,45-.09,7.33-.8,14.75.1,22,8.31,66.67-7.86,127.33-44.23,183.17-14.14,7.29-27.37,23.1-44.24,4.7q2.31-3.88,5.71-.91c18.88,4.18,29.28-4.74,38.58-20.78,25.54-44.06,43-89.48,36-141.73-1.65-12.25-.39-24.92-.21-37.39.6-40.9,18.3-59.69,59.48-64.23,22.58-2.49,45.06-5.84,67.58-8.8,8.17-3.66,16.7-1.37,25.08-1.54Q757.91,383.64,755.84,387.42Z" transform="translate(-482.13 -60.87)"/><path class="cls-15" d="M527.68,655.86l-5.7.91c-6.84-15.38-9-31.64-9-48.29-4.58-6.9,1.24-15.73-4.16-22.49-5.5-96.59,15.75-186.64,65.95-269.62l4.87.8c-15.41,36.12-35.34,70.14-46.06,108.47C512.23,502.08,510.07,578.62,527.68,655.86Z" transform="translate(-482.13 -60.87)"/><path class="cls-16" d="M857.35,118.74l13.33-8.57c25.15,12.46,44.62,59.64,31.4,81.61-35.29,58.66-72,116.48-108.28,174.54-1.86,3-5,5.15-7.54,7.7-4.38,3.71-8.73,4-13.07-.07.23-1.27.45-2.53.66-3.79q1.7-2.79,3.91-.38c24.42-14,31-41.37,45.61-62.51,25.31-36.65,46.82-75.91,70.84-113.48,16.35-25.58-4.79-44.2-10.57-65.54C879.89,114.42,866.85,120.08,857.35,118.74Z" transform="translate(-482.13 -60.87)"/><ellipse class="cls-17" cx="108.18" cy="439.59" rx="1.19" ry="89.23"/><path class="cls-18" d="M525.73,513.13v76.4h-2.2V511.26Z" transform="translate(-482.13 -60.87)"/><path class="cls-19" d="M773.19,374l13.07.07a11.29,11.29,0,0,1-.43,4.36,7.24,7.24,0,0,0-3.51.51c-8.67,2.45-16.51,9.39-26.46,4.82l-26.72-.78C743.12,376.49,758.45,376.65,773.19,374Z" transform="translate(-482.13 -60.87)"/><path class="cls-20" d="M531.67,483.92V454.18C544.41,466.26,536.52,475.26,531.67,483.92Z" transform="translate(-482.13 -60.87)"/><path class="cls-21" d="M777.76,369.78a14.78,14.78,0,0,1-3.92.38H742.55C754.26,366.86,766,361.59,777.76,369.78Z" transform="translate(-482.13 -60.87)"/><path class="cls-22" d="M840.87,133.77c-6.16,3.83-10.53,2.16-16.37,1.24C830.25,130.86,834.74,131.38,840.87,133.77Z" transform="translate(-482.13 -60.87)"/><path class="cls-17" d="M872.14,124.28c-5.47,4.93-10,2.33-18.56,3.37C861.87,121.74,866.4,123.4,872.14,124.28Z" transform="translate(-482.13 -60.87)"/><path class="cls-23" d="M570.68,661c21.59-31.21,41.3-63.31,48.51-101.38,4.35-3.89,0-10.65,4.8-14.41,5-.55,8.16,1.91,10.48,6,2.37,13-2.4,24.63-7.77,35.88-10.12,21.2-20.68,42.19-31.49,63.05-9.4,18.14-21.39,33.58-42.77,38.3-13.47,3-10.59,11.22-7.11,20.15,13.42,34.34,30.11,66.91,51.92,96.73a50.23,50.23,0,0,1,3.48,5.17c8.34,16.67,21.17,29.67,34.61,42.16,18.77,18.44,36.39,38,57.71,53.83,12.52,9.29,23.07,15.56,34.39-.74,2-2.95,5.89-4.23,9.65-4.73a8.08,8.08,0,0,1,5.51,2.47q-3.74,5.42-7.47,10.83c-17.26,25.19-23,24.28-46.37,6.41a478.05,478.05,0,0,1-112-121.78C556.41,767.33,538.93,734,530,696.72c-3.13-13,0-18.65,12.74-18C556.64,679.43,564.17,671.28,570.68,661Z" transform="translate(-482.13 -60.87)"/><path class="cls-9" d="M742.6,903.42l-5.83-.52c-2.15-17.42,9.78-26.39,21.54-35.12,14.38-10.67,31.31-16.39,48.22-20.79,19.38-5,31.88-16.54,41.31-33.38,6.08-10.86,11.08-22.32,18.29-32.58,36.21-51.49,103-49.15,133,6.15,13.19,24.32,25.55,47.15,53.11,58,8.16,3.22,17.27,9.65,13.21,22l-1.55,1.41c-13.13-9-25.8-18.47-41.05-24.1-19.47-7.19-23.55-26.6-30.52-42.86-11.28-26.32-28.42-42.1-58.58-44.13-33.28-2.24-53.61,16.3-65.2,42.23-16.33,36.55-40.46,57.72-80.32,65.51C769,869.07,752.29,884,742.6,903.42Z" transform="translate(-482.13 -60.87)"/><path class="cls-9" d="M862.59,843.19c3.66-16.62,12.44-30.87,21-45.22,11.61-19.52,28.89-28.09,51.41-26.86,22.68,1.24,37.51,15,44.2,34.24,10.43,30,29.77,48.62,58.22,61.21,17.6,7.78,26.19,25.35,30.9,43.37,2.27,8.68,6.08,16.37,9.4,24.43a8,8,0,0,1-5.85,2.2c-6.48-1.51-10.23-6.13-11.53-12.08-6.45-29.59-24.2-49.18-51.79-60.88-5.95-2.52-11.25-6.87-16.16-11.35a183.43,183.43,0,0,1-23.85-39.35c-14.7-32.57-41.94-37.44-68.11-12.68-8.55,8.22-11.89,19.75-18.56,29.1C877.13,835.92,874.21,845.85,862.59,843.19Z" transform="translate(-482.13 -60.87)"/><path class="cls-24" d="M1072.49,934.64l5.21-.28a100,100,0,0,0,30,28.24c16.66,10.16,16,14.51.68,25.16-9.64,6.7-19.43,9.37-30.67,8.56-6.29,5.72-14.87,5.41-22.19,8.42l-30.78.57c-4.57,2-8.46,6.19-13.78,5.83-35-2.33-70.65,6.61-105.06-6l-8.91-.61a4.35,4.35,0,0,1,1.24-6.15c10.19-5.67,21.34-3.69,32.18-3.86,45.16-.71,90.63,3.47,135-8.91,10.44-2.91,21.52-3.88,31.4-10.67C1092,959.38,1067.38,955.68,1072.49,934.64Z" transform="translate(-482.13 -60.87)"/><path class="cls-25" d="M862.59,843.19c18.9-9.69,17.48-34.53,34.19-45.85,2.06,2.27,3.48,5,2.48,7.93-12.53,36.67-39.56,80-90,83.91a12.42,12.42,0,0,1-5.6-3.21c-.87-7.28,5-8.46,9.7-10.61,10.44-3.15,20.26-7.93,30.5-11.63a2.25,2.25,0,0,0,.83-2.69c4.54-6.4,12.62-8.68,17.37-14.85A2.75,2.75,0,0,0,862.59,843.19Z" transform="translate(-482.13 -60.87)"/><path class="cls-13" d="M905.89,1005.17c39.61,6.34,79.22,6.84,118.84.14-.82,1.19-1.5,3.3-2.49,3.45C983.24,1015,944.22,1020.62,905.89,1005.17Z" transform="translate(-482.13 -60.87)"/><path class="cls-26" d="M752.74,955.42c-21-6-24.76-15.59-11.42-30.53,4.21-4.72,9.49-8.49,14.28-12.7a8,8,0,0,1,6.29,4.94,10.86,10.86,0,0,1-.52,5.56,43.53,43.53,0,0,1-4.82,7.23C748,937.34,756.07,947.25,752.74,955.42Z" transform="translate(-482.13 -60.87)"/><path class="cls-27" d="M897.21,999.52c-.08,1.68-.16,3.36-.23,5-18.79,4.5-35.14-6-52.76-8.62q-2.37-3.48.83-6.22c5.32-3.55,11.39-3.67,17.46-3.86C875.1,987.79,889.49,985.23,897.21,999.52Z" transform="translate(-482.13 -60.87)"/><path class="cls-28" d="M804.55,978c-10.43,2.16-18.65-2.59-26.51-8.47-5.77-3.17-12.65-4-17.76-8.59l-4.4-4.62c4.5-4.88,10.13-4.72,16-3.58,11.57,6,26.37,6.26,34.22,19A7.88,7.88,0,0,1,804.55,978Z" transform="translate(-482.13 -60.87)"/><path class="cls-29" d="M804.55,978c0-1.54,0-3.08,0-4.62,11.29-7.31,21,1.1,31.29,3.16,2.13.49,4.2,1.15,6.26,1.84,6.55,4.41,18.29,1.13,19.75,13.17l-18.16.47c-7.38,4.26-11.83-2.1-17.3-4.78l-2-.26-2,0c-5.7-3.56-14.42-.49-18.21-8.27Z" transform="translate(-482.13 -60.87)"/><path class="cls-25" d="M760.24,916.67l-4.64-4.48a2.12,2.12,0,0,0,.92-2.42c8.39-11,17.76-20.87,31.22-25.78,5.23.16,10.57-3,15.68.54l1.64,2.28C791.33,898.59,779.18,912.73,760.24,916.67Z" transform="translate(-482.13 -60.87)"/><path class="cls-30" d="M773.27,957l-17.39-.75a4.42,4.42,0,0,0-3.14-.87c-7-11-13-21.86,2.38-31.12C756.72,937.68,771.33,943.85,773.27,957Z" transform="translate(-482.13 -60.87)"/><path class="cls-9" d="M787,886.28c-11.54,6-17.89,18.78-30.45,23.48,3.13-17,15.6-23.83,30.46-28.12,1.37,1,1.82,2.07,1.36,3.1S787.43,886.28,787,886.28Z" transform="translate(-482.13 -60.87)"/><path class="cls-9" d="M843.84,863.73c-8.23,8.7-18.66,12.46-30.31,13.47-4.64,2.43-9.23,3.4-13.69-.41C814.3,871.73,827.67,863,843.84,863.73Z" transform="translate(-482.13 -60.87)"/><path class="cls-9" d="M862,846.19c-1.1,10.45-8.25,13.8-17.37,14.84C846.77,851.78,852.5,846.76,862,846.19Z" transform="translate(-482.13 -60.87)"/><path class="cls-31" d="M799.84,876.79l13.69.41-10.11,7.34q-8.24.86-16.45,1.74c0-1.55,0-3.09,0-4.64Z" transform="translate(-482.13 -60.87)"/><path class="cls-13" d="M1055.51,1004.74c6.36-5.54,14.3-6.93,22.19-8.42C1073.05,1006.36,1064,1004.83,1055.51,1004.74Z" transform="translate(-482.13 -60.87)"/><path class="cls-32" d="M508.85,586c7.23,6.41,3.55,14.85,4.16,22.49C506.75,601.89,509.38,593.65,508.85,586Z" transform="translate(-482.13 -60.87)"/><path class="cls-33" d="M760.28,960.91A26.77,26.77,0,0,1,778,969.5C770.47,970.06,763.74,968.85,760.28,960.91Z" transform="translate(-482.13 -60.87)"/><path class="cls-33" d="M804.22,978.71,822.43,987C815.34,986.48,806.27,990.31,804.22,978.71Z" transform="translate(-482.13 -60.87)"/><path class="cls-13" d="M826.41,987.21l17.3,4.77q.31,2,.51,4C836.59,996.5,829.8,995.31,826.41,987.21Z" transform="translate(-482.13 -60.87)"/><path class="cls-34" d="M808.86,378.91c32.08-52,63-104.66,96.67-155.56,20.08-30.35,27.9-57.78,7.53-91.84-15.9-26.59-9.18-34.6,21.21-35,48.25-.61,96.5-1.56,143.44,12.58,16.85,4.34,33.61,8.93,48.5,18.45,4.9,34.72.72,69.64,2.27,104.44.81,18.07-2.61,36.3,2,54.23-1.21,25.34,11.66,43.65,31.25,56.93,21.17,14.35,43,28.16,65.85,39.53,33.53,16.67,53.54,41.25,58.53,79,2.06,15.63,6.7,31.19,11,46.66,8.44,30.74-7.52,55-27,77.24-10.11,11.51-19.42,23.73-29.09,35.62-23.93,27-53.89,49.87-61.12,88.44,2.29,8.73,2.64,17.44-.22,26.13l-.19,4.44c5.29,12.87-1.58,27,4.08,39.8-2.46,14.37,13,22.4,12.74,36l-7.35-1.44q-1.61-.75-3.24-1.47c-28.94-43.24-26.79-88.36-8.13-134.46a33.31,33.31,0,0,1,3.28-5.82c11.91-16.2,26.29-30.47,37.56-47.23,16.41-19.79,33.25-39.2,49.93-58.74,13.56-15.87,17.18-33.56,14.26-53.39-3.44-23.27-8.75-46.16-13.91-69.09-4.12-18.29-14.59-31.93-31-40.74-20.73-11.12-39.62-25.35-60.73-35.77-47.22-23.31-64.34-63.9-65.07-113.63-.5-33.78-.62-67.58.13-101.35.31-14.12-4.91-22.32-18.17-25.77-46.32-12-93.28-20.35-141.24-19.77-27.79.34-31.5,6.25-20.44,31.88,13.24,30.7,8.67,57.16-9.58,85-30.6,46.61-59.08,94.64-88,142.36-3.82,6.29-7.35,12.73-12.91,17.75-3.74,3.06-7.71,5.42-12.85,4.06C806.32,385.18,806.14,382,808.86,378.91Z" transform="translate(-482.13 -60.87)"/><path class="cls-35" d="M1245.35,630.12c27.69-26.67,56.35-52.24,66.36-92.14,4.59-18.31-2.67-34.58-5.51-51.08-5.55-32.26-7.14-66.94-34.8-91.44-19.85-17.59-43.1-30.72-66.23-41.7-45.78-21.75-68.39-54.14-65.88-105,1.45-29.32-.06-58.78.38-88.16.35-24,8.93-30.17,30.1-19.17,55.63,28.91,106.37,64.51,146,114.13a8.18,8.18,0,0,1-6.17,2.17c-25.56-12.56-40.51-37.51-63.11-53.86-23.23-16.81-46.81-32.72-72.25-45.8-16.23-8.35-19.68-6.58-20,10.9-.57,33-.71,66,0,99,1,43.25,32.6,60.81,65.61,77,62.5,25.68,91,73.31,101.24,139.45,7.51,48.38,2.5,87.71-32.61,122.86-13.33,13.35-25.41,28.32-37.2,43.31-5.79,7.37-11.5,15.53-22.48,15.86q-3.52-2.19-1.39-5.75C1229.45,648.13,1242.36,642,1245.35,630.12Z" transform="translate(-482.13 -60.87)"/><path class="cls-36" d="M1227.42,660.61l.54,5.51c2.72,10.86-5.38,17.44-10.11,25.29-18.48,30.64-15.34,78,7.23,106.22,26.48,20.18,52.76,40.68,85.93,49.18a17,17,0,0,1,5,3.9c-6.5,12.64-13.88,13.49-25.88,5.09-20.84-14.57-43.54-26.45-64.66-40.64C1177.21,782.74,1178.58,692.68,1227.42,660.61Z" transform="translate(-482.13 -60.87)"/><path class="cls-37" d="M1310.55,255.77l5.17-.25,44.19,57.31c17.9,35.9,38.22,70.78,48.59,110,5.4,20.37,12.52,40.46,12.83,61.91a5.52,5.52,0,0,1-6.31,0c-7.2-5.32-8.24-13.74-9.7-21.41-13.45-70.33-44.83-132.15-88.52-188.22C1312.42,269.45,1306.36,264.23,1310.55,255.77Z" transform="translate(-482.13 -60.87)"/><path class="cls-38" d="M1416.9,484.64l4.43.05c8.57,62,7.69,123.53-9.09,184.25-2.71,9.8-4.67,20-11.5,28.17l-3-2.5c-7.34-16.68,3.24-31.37,6.15-46.6,7.51-39.42,12.35-78.57,8.1-118.85C1410.42,514.54,1406.94,498.51,1416.9,484.64Z" transform="translate(-482.13 -60.87)"/><path class="cls-39" d="M1316,850.71l-5.21-.5c-3.61-5.64-.76-10.24,2.31-14.83,12.5-16.07,27.15-30.56,36.14-49.26,2.86-6,6.54-11.53,13.88-12.91a7.72,7.72,0,0,1,5.59,2.37C1356.83,804.6,1334.23,826.11,1316,850.71Z" transform="translate(-482.13 -60.87)"/><path class="cls-39" d="M1368.73,775.58l-4.84-.15c-2.05-23.87,12.48-40.53,25.26-58a5.15,5.15,0,0,1,6.12.81C1391.14,739.55,1379.11,757.18,1368.73,775.58Z" transform="translate(-482.13 -60.87)"/><path class="cls-36" d="M1183.46,780c-8.27-12.56-2.68-26.54-4.08-39.8C1187.6,752.79,1181.85,766.78,1183.46,780Z" transform="translate(-482.13 -60.87)"/><path class="cls-38" d="M1395.27,718.27h-4.45c-6.16-10.65-4.07-18.43,7.93-22.76l2,1.61Z" transform="translate(-482.13 -60.87)"/><path class="cls-40" d="M1179.57,735.78q.11-13.06.22-26.14C1185.64,718.41,1185.85,727.12,1179.57,735.78Z" transform="translate(-482.13 -60.87)"/><path class="cls-35" d="M1130.47,286.22c-6.68-6.68-3.92-15.18-4-22.9-.31-45.26-.24-90.52-.29-135.77,6.81,5.68,4.3,13.52,4.32,20.51C1130.68,194.11,1130.53,240.17,1130.47,286.22Z" transform="translate(-482.13 -60.87)"/><path class="cls-41" d="M817.51,383.08c31.85-51.73,62-104.64,96.18-154.76,22.3-32.67,26.61-63,9-98.31-11.16-22.43-8.68-25.27,16.71-26.84,54-3.33,106.68,4.63,158.68,18.73,15.57,4.23,22.17,12.11,21.46,29.44-1.5,36.61-.33,73.33-.48,110-.17,43,15.34,76.71,54.93,97.62,20,10.58,39.08,23,58.56,34.67,5,3,10.21,5.81,15,9.19,39.46,27.84,53.7,133,22.7,170.13-16.38,19.61-31.4,40.44-50.59,57.59-13.12,13.69-26.62,27.06-35.6,44.09l.08-.1c-24.27,47.6-25.06,94.41,4.72,140.19l0-.14c12.37,18.14,3.07,28-12.5,37.95-26.84,17.11-52.61,35.89-80.81,50.84l-2.79-1.67c-11.77-31.65-32.22-54.82-64.18-67.51-14.34-5.7-18.43-19.61-23.62-32.66-17-42.77-50.24-61.68-91.56-52.57-26.83,5.91-43.55,24.87-53.88,47.9-13.2,29.4-31.3,50.33-64.27,56.71-27.31,5.28-46.73,21.72-61.75,45.13-15.66,24.4-18.26,23.69-42.4,7.62-22.29-14.84-39.34-35.12-58.29-53.45-14.39-11.88-24.71-27.27-36-41.79l0,.07c-19.59-31.76-39-63.5-52.38-98.67-5.72-15-4.51-23.24,12.39-27.36,15.89-3.87,26-16,33.17-29.76,12.89-24.67,25.59-49.47,37.21-74.77,5.82-12.66,6.43-25.72,4.94-40.27-3.12-30.55-1.51-61.51-.67-92.29a27.73,27.73,0,0,1,10-21.23,22.73,22.73,0,0,1,6.28-3.57c43-8.53,87-10.93,130.1-19.25C793.24,401,807.26,395.67,817.51,383.08Z" transform="translate(-482.13 -60.87)"/><path class="cls-42" d="M1187.83,942.79c.06,1.46.12,2.93.15,4.4-13,6.65-26,23.44-40.32,14.06-22.55-14.83-53.56-23.33-57.57-57.42,1.6-2,3.27-2,5-.17l.46-.29c6.53,30.12,33.28,39.45,55.94,51.13C1163.6,960.76,1174.62,944.13,1187.83,942.79Z" transform="translate(-482.13 -60.87)"/><path class="cls-43" d="M1206.35,932.14c-4.58,3.12-9,2.72-15.08.19C1197,929.07,1201.47,928.86,1206.35,932.14Z" transform="translate(-482.13 -60.87)"/><path class="cls-35" d="M808.86,378.91c-.06,2.82-.11,5.64-.17,8.46-1.9,15.67-15.52,15.44-26,17.77C747.28,413.07,711,415.7,675,420.59c-10.08,1.37-20.16,2.63-29.74,6.31l.05,0c-9.27,5.5-11.17,13.87-11,24.12.5,28.29.4,56.6,0,84.89-.07,5,3.72,11.84-4.2,14.89l-6.56-4.44a493.74,493.74,0,0,1,0-101.4c3.23-23.05,17.07-29.67,39.51-31.64,41.26-3.63,82.23-11.05,123.17-17.8C795.59,393.93,801.92,385.35,808.86,378.91Z" transform="translate(-482.13 -60.87)"/><path class="cls-5" d="M623.49,444.93q0,50.7,0,101.4c-.16,4.84.74,10-4.35,13.26,0-31.38-.16-62.75.06-94.12C619.3,458.47,616.85,450.68,623.49,444.93Z" transform="translate(-482.13 -60.87)"/><path class="cls-44" d="M755.86,383.71l26.46-4.82c-7,8.58-16.58,9-26.48,8.53C755.85,386.19,755.85,385,755.86,383.71Z" transform="translate(-482.13 -60.87)"/><path class="cls-45" d="M1095.08,903.66l-5,.17c-10.66-10.55-5.34-31.85-24.63-36.59-1.71-15.44-15.55-19-26-23.47-18.19-7.8-30.07-19.86-36.78-38.1-11.78-32-32.23-54.46-68.49-55.63-36-1.16-59.52,18.89-72.38,50.48-13.81,33.93-38.93,51-73.31,58.9-24.05,5.5-41.54,20.56-51.68,43.48-3.46,3.65-7.64,6.85-10.26,11-7.67,12.23-15.74,12.39-26.82,3.77-24.22-18.85-48.59-37.41-67.81-61.71-1.8-2.17-1.56-4.07.74-5.7,23.54,19.65,43.14,43.57,70.6,59.2,11.3,6.43,16.68,4.11,20.93-3.72,19.85-36.55,52.9-53.19,91.08-62.71,14.76-3.68,23.45-14.1,30.35-26.74,6.31-11.57,12.49-23.25,19.41-34.47,17.45-28.28,42.64-41.29,76.08-37.57,30.8,3.43,52.18,21,62.83,48.42,9.1,23.47,22.25,38.65,45.7,49.16C1074.79,853.14,1088,877.09,1095.08,903.66Z" transform="translate(-482.13 -60.87)"/><path class="cls-46" d="M630.1,550.77c.3-32.85.37-65.71,1-98.55.21-10.58-1.35-23,14.21-25.35a47.49,47.49,0,0,0-8.94,33c.76,8.74-.86,17.74.3,26.4,8.2,61.3-10.6,115.52-42,166.93-9.4,15.43-19,29.78-37.38,34.91-13.33,3.71-15,11.32-10,23.27,11.33,27.12,23.32,53.82,39.81,78.3,4.43,6.56,10.38,12.54,9.64,21.47-29.63-31.69-44.6-71.45-60.37-110.65-3.56-8.84-.11-16,10.79-17,21.69-2,33.91-16,41.92-34.28C603.43,616.7,627.82,588.31,630.1,550.77Z" transform="translate(-482.13 -60.87)"/><path class="cls-46" d="M632.62,850.29c-.25,1.9-.49,3.8-.74,5.69-14.6-12.7-28-26.38-35.13-44.9C612.24,820.92,619.74,838.06,632.62,850.29Z" transform="translate(-482.13 -60.87)"/><path class="cls-2" d="M760.24,916.67c14.24-11,26.26-25.33,44.81-29.86,51.2-8.69,76.88-43.53,91.73-89.47C920,769,953.53,771.78,970.6,803.63c8.16,15.23,15.88,30.7,23.8,46.06,9.77,8.87,20.13,16.59,32.59,21.67a44.86,44.86,0,0,1,20.11,16.23c14.75,21.21,11.69,36.58-12.71,43.81-57.2,16.94-115.65,27.63-175.61,20.35-28.3-3.44-56.83-6.93-84.35-15.1-7.67-2.28-19-2.36-14.46-16.11Q760.06,918.61,760.24,916.67Z" transform="translate(-482.13 -60.87)"/><path class="cls-47" d="M760,920.54C770.2,937.75,789.6,934.62,804.3,937c35.17,5.66,70.54,14.87,106.63,10.33,41.87-5.26,84.48-7.23,124.42-22.74,19.1-7.42,21.38-18.07,9.39-35.06-5.72-8.09-13.58-12.76-22.2-17.14-10.84-5.51-23.3-9.54-28.14-22.68,13.27,7.25,26.47,14.64,39.83,21.72,17,9,22.62,25.65,28.25,42.23,2.51,7.41,2.25,16.1,10,21,3.6,15,16.6,21.52,27.39,29.87,4.59,3.55,11.6,5.88,10.4,12.55-1.07,5.89-8.29,4.58-13,6.18-54.42,18.6-110.61,19.91-167.22,17.41-11-.48-21.93-.76-32.89-1.13-11.17-5.37-23.06-7.54-35.34-8l-21.8-9.81c-1-5.57,3.14-5.07,6.47-5.37a61.47,61.47,0,0,1,6.37-.08,23.86,23.86,0,0,0-4-.14c-5.17-.38-9.89.5-13.53,4.6l-30.76-7.37L773.27,957c-8.55-9.53-28-13-18.15-32.74Z" transform="translate(-482.13 -60.87)"/><path class="cls-48" d="M835.33,980.72c6.61-13.45,17.7-3.13,26.3-6.07-6,7.06-15.63.27-21.57,7.06Z" transform="translate(-482.13 -60.87)"/><path class="cls-46" d="M645.28,426.9c6.47-9.23,16.66-7.19,25.76-8.52q56.07-8.17,112.13-16.43c10.36-1.53,19.74-4.95,25.52-14.58l8.82-4.29c-2.29,17.3-17.28,22.63-29.72,24.86C740.63,416.42,693.16,423.47,645.28,426.9Z" transform="translate(-482.13 -60.87)"/><path class="cls-6" d="M1188.88,814.72c-5.8-1-8.43-5.34-10.6-10.14-18.71-41.56-17.93-83.34-1-125.13.89-2.2,4.51-3.3,6.87-4.92C1165,722,1165.1,768.74,1188.88,814.72Z" transform="translate(-482.13 -60.87)"/><path class="cls-6" d="M1184.08,674.63c5.63-19.73,18.49-33.63,35.6-44.09C1210.24,647.2,1196.8,660.62,1184.08,674.63Z" transform="translate(-482.13 -60.87)"/><path class="cls-2" d="M1222.86,802.36c-26.26-23.73-30.73-85.54-8.47-116.7,4.6-6.45,9-13,13.57-19.54a772.55,772.55,0,0,0,78.39-91.27c27.14-36.8,8.56-76,3.31-114.56-6.39-46.83-30.35-79.66-73.38-99.18-6.38-2.9-13.78-5.49-17.78-12.34-65.91-41.15-66.54-37.8-65.76-120.58.2-22-.2-43.94.16-65.9.15-9.08,1.83-17.2,14-10.88,65,33.75,122.78,75.87,162.37,139.24,29.94,67.42,45.34,138.08,40.83,211.69-4.82,78.47-24.48,153.18-68.09,220-9.15,6.85-16.09,15.62-21.6,25.59a41,41,0,0,1-3.45,4.92c-10.82,15.36-25.56,27.76-34,45C1237.54,805.07,1231,807.18,1222.86,802.36Z" transform="translate(-482.13 -60.87)"/><path class="cls-49" d="M1324.76,290.56c-39.52-64.68-99.46-104.69-167.39-140.88,0,48.29-.9,92.87.47,137.38.5,16.1,13.28,26.79,25.83,36.5,11.36,8.78,27.34,11.18,34.83,25.21-51.83-17.6-69.23-41-69.25-93.11,0-31.57.19-63.13,0-94.69-.12-16.07,5.7-19.3,20.21-12.16,54,26.57,99.67,64,141.14,107,27.23,39.37,55.92,77.65,74.65,122.45,14.42,34.51,21.91,70.73,31.7,106.42,5.81,71.31,3.23,141.9-18.15,210.87-4.44,7-8.55,14-7.93,22.75q-13.47,28.59-26.93,57.17c-16.86,20.21-27,45.49-47.63,62.87-7.69-11.76,2.34-19.26,7.57-26.85,27.37-39.64,50.77-81.19,65-127.47.82-5.84,1.53-11.69,3.46-17.3,17.45-62.11,19.31-124.88,8.2-188.2-2.27-7.91-2-16.11-2.6-24.19-.51-6.55-3.64-12.28-5.85-18.3a102.75,102.75,0,0,1-3-12.34C1374.82,375.82,1349.42,333.37,1324.76,290.56Z" transform="translate(-482.13 -60.87)"/><path class="cls-50" d="M1324.76,290.56c28.72,30.63,45.74,68.16,60.41,106.56,3.27,8.53,9.86,16.13,9.94,25.92-2.29,4.37-3.94,8.74.18,13q4.21,6.7,8.44,13.41c-7.11,13-4,25.9-.24,38.79,1.3,2.87,2.17-2.21-.43-.84-.65.34-1-.22-1-1.68-.11-3.52-1.2-7.23,2.08-10.05,5,3.42,4.46,9,5.13,13.91A468.6,468.6,0,0,1,1401.42,661c-.75,3.24-4,5.89-6.11,8.82-4.22,5.72-2.73,11.55-.3,17.39a554.88,554.88,0,0,1-74.77,139c-2.71,3.7-4.46,7.43-4,12q-2.73,6-5.45,11.92c-5.06.1-11.42,2.25-15,0-24.5-15.66-51.66-27.36-73-47.83,7.46-.22,14.74-.79,18.08-9.13,11.87-14.62,25.51-27.81,35.29-44.09h0c6.54-8.37,13.43-16.52,17.65-26.45,26-32.23,39.77-70.86,50.89-109.33,12.27-42.41,20.92-86.22,19.85-131.3-1.4-58.92-10.64-116-33.6-170.56C1328.21,304.82,1326.81,297.55,1324.76,290.56Z" transform="translate(-482.13 -60.87)"/><path class="cls-51" d="M1056.54,586.2c-4.75,9.35-15.63,8-22.83,13.14-1.12-.1-2.23-.19-3.35-.27-14.66-8.93-29.31-5.93-44.16-.29-50.63,19.26-101.83,37-152.56,56-17.06,6.39-30.47,5-44.39-7.16-16-13.92-34.2-25.15-50.44-38.85-6.6-5.56-15.56-11-13.71-20.89,1.71-9.12,11.61-9.7,19.07-12.5,23.69-8.86,46.63-12.12,68.82,4.58,9.5,7.15,21.51,6.69,31.71,2.71,35.43-13.81,72.47-23.61,106-41.88,1.81-1.52,5.14.92,4.94.73-4.68-4.58,3.2-11.94-3.62-15.7-26.82-14.53-45.23-38.43-64.59-60.57-12.42-14.2,1.54-17.7,13.43-19,9.21,2.43,18.53,1.79,27.86.81,35.18,12.86,65.59,35.07,99.4,50.63,13.36,8.73,26.82,7.39,41.45,2.55,19.68-6.51,37.62-19.13,59.62-17.91,4.84,4.44,10.5,5.35,16.66,4.12,3-.54-.56-4.7.26-1.87.35,1.22,0,1.79-.92,1.88-4.07.37-8.23,1.11-11.32-2.72,9.59-16.79,25.2-18.93,41.47-14.76,13.62,3.48,23.08,13.76,24.63,28.12,1.83,17-9.13,27.14-22.86,34.23-22.88,11.82-48.09,17.64-72.06,26.68C1087.06,564.75,1070.2,572.41,1056.54,586.2Z" transform="translate(-482.13 -60.87)"/><path class="cls-52" d="M822.3,545.91c24.87.76,45.93-10.88,69.75-20.2-17.62-22.93-40-38.45-58.4-57.93-17.87-18.94-15.52-34,8.55-43.27,21-8.11,42.83-14.23,64.09-21.81,10.81-3.85,20-.94,29.35,4.08,28.78,15.55,59.46,28.44,85.88,47.29,25.93,18.5,47.37,8.5,71.61.09,23.18-8,44.48-22.31,70.17-22.47,34.83-.21,62.7,21.51,72.09,56.11,6.47,23.81-10.4,60-38.18,72.45-38.5,17.26-78.58,31-119.23,42.61-5.13,1.47-10.24,1.08-13.8-3.91a4.28,4.28,0,0,1,1-6,911.67,911.67,0,0,0,125.87-44c22.45-9.85,32.69-29.46,30.53-53.08-2.21-24.21-16.49-42.79-38.34-48.07-17.63-4.26-34.84-.45-51.55,5.61-15.1,5.49-30.83,10.06-45.08,16.89-24.94,11.95-47.46,11.84-70-4-25.22-14.87-50.73-29.27-76.38-43.44-14.59-8.06-28.47-9.33-44-3-12.15,5-24.94,8.48-37.45,12.64-25.73,8.56-27.64,17.19-7.24,35.83,11.88,10.87,23.43,22.16,36.15,32.15,4.32,3.95,8.59,8,12,12.72,8,11.17,6.86,20.28-6.56,26.19-17.33,7.65-35.37,13.42-53.52,18.55-9.39,2.65-19.13,1.35-22.91-10.52Q818.59,543.52,822.3,545.91Z" transform="translate(-482.13 -60.87)"/><path class="cls-53" d="M822.3,545.91l-5.7.85c-1.18.94-2.91,2.24-3.84,1.69-35.28-20.9-65.62,1.87-97.33,11.2-10.44,3.08-20.38,8-30.46,12.26-12.73,5.43-13,13-3.55,21.3,9.87,8.63,20,17.08,30.66,24.72,27.91,20,53.76,42.59,81.67,62.54,11.14,9.74,23.08,6.26,35.1,2.25,40.81-13.62,80.48-30.38,121.35-43.81,9-2.95,17.8-7.51,27-.72,1.95,3.38,1.46,6.54-.86,9.53-16-9.23-25.15,11.67-39.66,8.9-5,4.37-10.19,8.22-17.36,4.79-29.22,11.31-58.36,22.83-87.68,33.86-17.35,6.53-33,5.7-48.79-7.1-35-28.47-71.27-55.45-107.12-82.9-26.58-20.34-16-37.94,6.18-47.46,26.54-11.41,54.61-19.23,81.81-29.17C787.78,519.84,806,529.15,822.3,545.91Z" transform="translate(-482.13 -60.87)"/><path class="cls-54" d="M1065,592.79l-.84,6.17-7.66-12.76c2.9-15.88,14.57-22.39,28.34-27.13,25.49-8.77,50.86-17.9,76.24-27,28.76-10.28,38.87-23,32.43-40.57-7.23-19.73-26.47-23.67-53.87-10.94a45,45,0,0,0-5.44,3.57c-1,2-2.14,2.25-3.56.42-20,7-40.24,13.3-59.89,21.13-16.25,6.47-31.18,7.23-45.5-3.94-1.91-2-1.79-3.86.36-5.61,4.24-2.4,8.63-2.18,13.09-.79,16.06,8.48,29.79-2,43.49-6.7,24-8.32,48-17,72-25.73,28.39-2.42,46.19,7.84,51,29.34,4.39,19.73-7.37,38-32,48.2-32.23,13.41-66.69,21-97.73,37.42C1070.28,581.66,1069.84,588.77,1065,592.79Z" transform="translate(-482.13 -60.87)"/><path class="cls-55" d="M1109.55,710.4c11.32-.18,21-1,27.48,8.13,5.11,7.15,4.42,14.61-2.51,19.07-14.51,9.33-30.22,8.68-45.26,1-7.61-3.87-9.56-11.35-5-18.49C1090.54,710.36,1100.93,709.65,1109.55,710.4Z" transform="translate(-482.13 -60.87)"/><path class="cls-56" d="M1074.09,803.07c-11.42-1.42-27.72,2.76-28-15.4-.32-17.92,15.28-16,27.45-16S1101,770,1100.7,788C1100.41,804.64,1085.49,801.94,1074.09,803.07Z" transform="translate(-482.13 -60.87)"/><path class="cls-57" d="M1091,134.6c16.92-4.92,22.16-.81,22.08,12.23-.31,50.44-.13,100.88-4.49,151.44V231c0-25.64-.33-51.29.16-76.93C1109,143.85,1107.59,135.75,1091,134.6Z" transform="translate(-482.13 -60.87)"/><path class="cls-58" d="M976.34,647.72l-.35-9.89c2.22-12.15,13.59-12.12,21.8-15.47,12.48-5.09,24.05-10.64,30.18-23.56a5.28,5.28,0,0,1,5.85-.22l-.11.76c5.38,22.72-12,30.13-27.17,33.56C994.46,635.63,985.69,641.38,976.34,647.72Z" transform="translate(-482.13 -60.87)"/><path class="cls-59" d="M1091.33,701.75h38.49l0,1.88H1091.4C1091.37,703,1091.35,702.38,1091.33,701.75Z" transform="translate(-482.13 -60.87)"/><ellipse class="cls-60" cx="447.9" cy="677.23" rx="27.49" ry="1.36"/><ellipse class="cls-61" cx="591.21" cy="752.2" rx="24.67" ry="1.46"/><path class="cls-62" d="M1096.35,750h33.42l.06,2.15h-33.46C1096.36,751.39,1096.35,750.67,1096.35,750Z" transform="translate(-482.13 -60.87)"/><path class="cls-63" d="M919.32,661.41l17.36-4.79C936.48,667.36,933.28,668.25,919.32,661.41Z" transform="translate(-482.13 -60.87)"/><path class="cls-64" d="M949,163.07c.27,2.7.71,5.4.8,8.1.13,4.19,0,8.39-2.76,12.85V163.9Z" transform="translate(-482.13 -60.87)"/><path class="cls-65" d="M1177.08,421.11c-7.42,1.74-11.8,3.32-16-.79C1165.89,417.62,1170.33,417.75,1177.08,421.11Z" transform="translate(-482.13 -60.87)"/><path class="cls-66" d="M932.55,994.61c23.34-10,46.34-8.73,69.38,0Z" transform="translate(-482.13 -60.87)"/><path class="cls-67" d="M1276.22,749.14c-6,19.31-19.63,32.5-35.29,44.09C1248.58,775.24,1262.89,762.58,1276.22,749.14Z" transform="translate(-482.13 -60.87)"/><path class="cls-68" d="M1211.16,771V710.56l2,0V771Z" transform="translate(-482.13 -60.87)"/><path class="cls-20" d="M1317.2,463.18V433.33C1326.19,445,1326.56,453.8,1317.2,463.18Z" transform="translate(-482.13 -60.87)"/><path class="cls-69" d="M1293.88,722.69c1.1,13.48-8,20.13-17.66,26.45C1279,738.27,1284.48,729.17,1293.88,722.69Z" transform="translate(-482.13 -60.87)"/><path class="cls-50" d="M1404.13,475.69v12.78c-7-13.17-16.71-26.44-.4-39Q1403.92,462.59,1404.13,475.69Z" transform="translate(-482.13 -60.87)"/><path class="cls-70" d="M1395,687.22c-6.14-6.63-5.08-14.27-2.67-21.85.87-2.73,3.92-1.64,1.9.44-.5.51.67,2.64,1.07,4Z" transform="translate(-482.13 -60.87)"/><path class="cls-71" d="M1395.29,436.06c-.86,1.72-1.56,7-3.4,3.5-2.56-4.9-2.75-12,3.22-16.53Z" transform="translate(-482.13 -60.87)"/><path class="cls-72" d="M1033.82,598.58l-5.21,1.19c-19.91-4.41-37.68,4.17-55.21,10.68-28.18,10.47-57,19.35-84.46,31.73-20.48,8-41.84,13.67-62,22.56-10.58,4.67-20,3.94-28.82-3.06-24.72-19.55-51.3-36.72-74.53-58.13-13.48-12.42-12.13-22.8,4.52-29.68,12.84-5.31,26-9.9,39-14.92,15.38-5.94,27.51,1.7,38.6,10,14.51,10.88,28,12,44.82,4.46,24-10.79,49.56-18.11,74.16-27.67,18.64-7.25,20.46-12.09,6.68-25.29-16.82-16.12-30.41-36-52.43-46.29a18.87,18.87,0,0,1-6.59-7.45c1.18-24,32.84-41.39,56.19-30.37,13.14,6.21,25.46,14.09,38.42,20.64a38,38,0,0,1,5.54,2.73c6.34,4.5,12.78,8.87,20,11.93a54.37,54.37,0,0,1,5.13,2.69c6.58,4,13.17,8,20.41,10.82a19.56,19.56,0,0,1,4.91,3.44c2,2.46,3.14,5.15,2.26,8.38,0,1.6,0,3.2,0,4.8l-97.75-52c-8.69,2.51-17.35,2.8-26-.22-12,1.85-21.3,4.32-7.15,17.48,20.23,18.81,39.88,38.26,59.78,57.44,3.42,5.76,3.29,11.54.08,17.33-16,18.17-40.25,19.6-60.34,29.47C880.25,578,865.16,581.79,850.76,587c-12.78,4.63-27.41,8.52-37.93-.3-29.57-24.78-56.67-8.93-87.68,1.25,25.24,26.25,54.17,43.59,80.31,64.25,8.95,7.07,18.24-.13,26.89-3.2C888,629.28,943.7,609.63,999.11,589.24,1013.75,583.85,1024.65,586.53,1033.82,598.58Z" transform="translate(-482.13 -60.87)"/><path class="cls-73" d="M954.25,541.83q0-8.66-.08-17.33c.12-.7,0-1.58.41-2.08a19.48,19.48,0,0,1,2.56-2.4,47.76,47.76,0,0,1,.07,26.11s-1.46,0-1.6-.3A37.61,37.61,0,0,1,954.25,541.83Z" transform="translate(-482.13 -60.87)"/><path class="cls-74" d="M901.54,449.58l26,.21C918.81,455.88,910.15,456.05,901.54,449.58Z" transform="translate(-482.13 -60.87)"/><path class="cls-75" d="M1130.67,484.58a7.11,7.11,0,0,1,3.56-.41l18,1.61C1142.08,489.92,1136.06,490.68,1130.67,484.58Z" transform="translate(-482.13 -60.87)"/><path class="cls-76" d="M1065,592.79c.65-5.5-2.66-11.81,3.31-16.22l2.82,1.38c5.26,6.2,11.67,5,18.06,2.54,31.49-12.08,64-21.59,94.67-35.63,37.56-17.21,42.52-60.11,10-82.9-16.21-11.37-34.83-10.31-52.79-4.35-23,7.63-46.12,14.7-68.67,23.55-27.25,10.69-40.79,7.2-61.93-15.36,1.14-3.37,2.56-6.24,6.9-3.87,39.81,27,73.5-2,108.86-12.56,22-6.56,42.81-15.15,66-4.88,41.55,18.4,50.45,78.62,12.36,102.91-37.71,24.06-82.28,33.91-124.67,47.73C1075.7,596.52,1070.05,593.67,1065,592.79Z" transform="translate(-482.13 -60.87)"/><path class="cls-77" d="M790.34,683.51c-38.3-29.18-76.92-58-114.72-87.77-13.28-10.47-11.4-21.85,4.08-28,30.54-12.07,61.61-22.8,92.38-34.29,18.34-6.85,29.6,9.14,44.52,13.28,7.13,8.28,15.41,9.34,25.48,5.36,13.54-5.35,27.6-9.37,41.2-14.61,23.45-9,23.37-9.28,5.12-27.53-2-2.06-3.83-4.37-5.74-6.57a7,7,0,0,1,5-3.59c10,.5,15.6,7.45,20.43,14.88,7.28,11.17,6.33,20.95-6.64,27.19-21.2,10.19-43.42,17.77-65.91,24.52-11.92,3.57-21.94-2.56-30.56-9.06-15.76-11.88-31.34-12.77-49.37-5.55-19.7,7.89-39.53,15.63-59.87,21.94-13.83,4.29-16.43,10.71-3.55,20.56,29.1,22.27,58.41,44.28,87,67.23,6,7,17.92,9.45,16.94,21.86A3.9,3.9,0,0,1,790.34,683.51Z" transform="translate(-482.13 -60.87)"/><path class="cls-78" d="M1017.44,461.93l-5.82,5c-23.47-4-41.68-19.26-62.32-29.29-12.35-6-23.55-18.13-37.61-15.65-21.43,3.79-42.13,11.7-61.62,21.94-8,4.22-4.56,9.25-.28,14,7.33,8.21,16.51,14.4,24.24,22.13,5.82,5.82,15.24,10.32,10.31,21.46-.58.61-1.14,1.24-1.68,1.88-15.1-13.79-30.54-27.22-45.17-41.48-12-11.67-10.1-22.79,5.42-28.95,21.72-8.63,44-15.91,66.14-23.35,6.32-2.11,13.53-2.3,19.38,1C958.18,427.61,989.85,441.25,1017.44,461.93Z" transform="translate(-482.13 -60.87)"/><path class="cls-79" d="M790.34,683.51l5.28-.81c50.71-9.86,97.27-32.33,145.89-48.51,20.69-6.89,42.13-12.52,61.08-24.41-36.92,6.53-69.84,26.16-106.69,32.89-3.5-.27-6.57-1.38-8.65-4.41,38.4-18.59,79.15-30.92,119.35-44.69,8.55-2.92,15.5,1.17,22,6.2,1.47,12-5,18.06-15.32,22.59-12.33,5.43-26.3,6.92-37.3,15.48-50.36,12.66-97.46,34.71-146.6,50.89C815.7,693.24,801.33,700.3,790.34,683.51Z" transform="translate(-482.13 -60.87)"/><path class="cls-76" d="M1068.34,576.57c23.79-18,53.78-21.24,80-33.47,6.6-3.08,13.79-4.86,20.6-7.51,25.9-10.06,35.72-23.64,31.23-42.92-4.53-19.45-18.85-27.25-46.72-25.43q-3.33,2.82-6-.61c3-12.13,12.6-13.86,22.25-12.16,19.29,3.38,33.93,13.62,40.22,33.14,5.86,18.17,1.35,36.61-13.56,45.37-38.94,22.88-80.92,39.42-126.37,45.15Z" transform="translate(-482.13 -60.87)"/><path class="cls-78" d="M1147.89,466.39l5.56.85c-32.32,12.23-64.61,24.55-97,36.61-7.25,2.7-14.3,2.25-19.36-4.89a9.88,9.88,0,0,1,4.64-4.9c27.68-7.43,54.25-18.13,81.28-27.52C1131.2,463.7,1139.56,459.44,1147.89,466.39Z" transform="translate(-482.13 -60.87)"/><path class="cls-77" d="M1025.27,497l-5.5-7.07c9.71-6.45,15.57-3,18.8,7.28-.48.61-1,1.2-1.49,1.77Z" transform="translate(-482.13 -60.87)"/><path class="cls-80" d="M1038.57,497.19c-5.48-4.46-11.09-8.56-18.8-7.28l.19.08c-8.89-4.5-16.29-11.86-26.54-13.75l.24.19c-6.22-6.58-14.75-9.21-22.47-13.24l.35.21c-11-6.78-23.55-11.64-33.23-19.59-20.06-16.46-38.29-6.75-56.76.86-10.18,4.19-14.6,11.86-5,21.71,2.31-.4,3.69.35,3.59,2.92,17.87,16.05,35.12,32.78,51.5,50.32,11.88,12.73,9.62,22.65-6.19,28.18-26.91,9.42-53.75,19.07-80.4,29.14-14.68,5.55-27.23,4.73-38.74-5.16-16.15-13.88-32.49-17-52.12-6.51-8.74,4.66-18.92,7.54-28.6,10.83-15.76,5.36-16.45,13.15-4.22,24.58,20.84,19.49,45.88,33.68,66.76,53.11-.1,6.82-4.21,10.13-10.26,11.73-32.56-24.58-65.33-48.88-97.55-73.89-11-8.52-8.6-15,4.73-19.56,29.6-10.17,59-20.87,88.16-32.38,12.43-4.92,20.91,3.75,27.57,8.85,16.71,12.81,32,17.14,51.51,7,12.18-6.35,25.91-9.7,38.71-14.94,21.45-8.78,22.61-16.9,4.69-32.81-3.14-2.8-7.51-4.2-11.31-6.25-5.89-17.34-23.24-23.52-34.67-35.47-16.77-17.51-16.67-21.54,4.76-30.5,17.49-7.3,35.48-13.39,53.28-19.94,5.83-2.15,11.1-1.32,16.7,1.91,29,16.67,58.13,32.95,87.22,49.36,33.6,27.14,64.87,5.15,97.06-4.09,18.61-5.34,35.61-16.49,56.46-14.37,31.89,3.25,52.28,18.92,55.5,44.37,3.43,27.11-12.73,51.13-41.54,61.57q-45.22,16.38-90.49,32.61c-9.2,3.32-19.45,8.81-18.65-8.87,37.52-13.63,75.27-26.65,112.46-41.14,21.73-8.46,30.19-34.06,19.88-54.58-10.63-21.16-33.68-27.94-54.41-16-31.89,3.68-59.05,22.26-90.12,28.72C1051.31,496.45,1045.16,498.12,1038.57,497.19Z" transform="translate(-482.13 -60.87)"/><path class="cls-77" d="M786.69,656.54c-23.64-18.27-47.7-36-70.77-55-14.27-11.73-11.9-23.42,5.58-27.77,8.11-2,14.64-6.27,22-9.26,24.18-9.87,47.2-14.17,68.52,7.22,10.67,10.69,24.1,3.72,35.44.24,25.75-7.92,51.17-17,76.32-26.72,11.62-4.47,15.61-11.43,4.74-23-16.39-17.4-37.37-30.7-48.4-53,27,13.23,44.81,37,64.75,57.91,9.53,10-1.82,18.12-10.4,21.45-32.08,12.46-64.67,23.59-97,35.46-13.33,4.89-22.32-4-32.34-9.47C796.25,569.77,788,559.41,778,562.1c-19.65,5.28-38.73,13.18-57.37,21.52-8.16,3.65-3.54,9,1.86,13.13,26.18,20.06,52.19,40.34,78.26,60.54,6.86,5.32,13.31,6.27,22.22,2.77,21-8.26,42.82-14.65,64.31-21.8L897,639c.5,3.18-.62,5.91-3.48,7.11-25.31,10.61-50.54,21.89-77.4,27.64C803.22,676.52,789.76,673.71,786.69,656.54Z" transform="translate(-482.13 -60.87)"/><path class="cls-77" d="M876.5,466.38c-13.43-10.48-13.66-17.13,3.23-25.94,38.39-20,64.9.75,91.81,23-12.9-1.59-23.71-8.82-33-16.35-19.54-15.79-37.22-5.92-55.41.9C874.38,451.23,874.24,458.63,876.5,466.38Z" transform="translate(-482.13 -60.87)"/><path class="cls-77" d="M993.42,476.24c12.26-2,19.78,5.14,26.54,13.75C1009.15,489.21,1001.61,482.09,993.42,476.24Z" transform="translate(-482.13 -60.87)"/><path class="cls-77" d="M971.19,463.19c9.88.35,18.34,3.12,22.47,13.24C985.23,473.61,976.56,471.19,971.19,463.19Z" transform="translate(-482.13 -60.87)"/><path class="cls-81" d="M786.69,656.54c12.92,14.37,26.69,15.63,44.47,7.15C852.23,653.64,875,647.08,897,639q49.23-18.06,98.45-36.14c6.61-2.42,15.21-8.33,19.12.55,4.48,10.17-6.17,13.68-13.29,16.26C954.71,636.62,908,653,861.36,669.62c-13.72,4.87-27.67,9.2-41.07,14.83-9,3.77-16.81,4.14-24.67-1.75l-17.8-17.18A15.4,15.4,0,0,1,786.69,656.54Z" transform="translate(-482.13 -60.87)"/></svg>